<?xml version="1.0" encoding="utf-8"?>
<svg version="1.1" id="Layer_1" xmlns="http://www.w3.org/2000/svg" xmlns:xlink="http://www.w3.org/1999/xlink" x="0px" y="0px"
	 viewBox="0 0 311.81 311.81" style="enable-background:new 0 0 311.81 311.81;" xml:space="preserve">
<style type="text/css">
	.st0{fill:#343E44;}
	.st1{fill:#FFFFFF;}
</style>
<g>
	<path class="st0" d="M156.2,9.75C75.39,9.75,9.65,75.49,9.65,156.3c0,80.81,65.75,146.56,146.56,146.56s146.55-65.75,146.55-146.56
		C302.76,75.49,237.01,9.75,156.2,9.75"/>
	<path class="st1" d="M156.2,57.05c-54.66,0-99.68,44.88-99.86,99.54l5.24,0.02c0.2-49.18,38.41-89.4,86.78-92.79
		c2.58-0.21,5.2-0.33,7.84-0.33c51.6,0,93.43,41.83,93.43,93.43c0,30.34-14.47,57.29-36.87,74.36
		c-11.39,8.67-24.82,14.79-39.45,17.49c-3.43,0.63-6.91,1.09-10.46,1.33c-2.19,0.15-4.41,0.24-6.64,0.24c-0.03,0-0.05,0-0.08,0v0.08
		v0.04c-2.74-0.07-7-0.45-7.05-2.54c-0.04-1.73,1.27-3.12,2.55-4.11c1.71-1.32,3.69-2.27,5.67-3.12c1.9-0.81,3.84-1.55,5.78-2.23
		c0.62-0.22,1.24-0.47,1.72-0.91c0.74-0.66,0.98-1.77,0.5-2.66c-0.56-1.03-1.75-1.64-2.78-2.08c-4.18-1.79-24.62-1.42-27.19-1.37
		l-0.26,0.01c0.08,0.01,23.41,2.62,23.45,4.05c0.03,1.44-16.7,4.72-16.98,15.1c-0.08,2.83,2.99,3.7,4.17,4.11
		c4.11,1.4,5.94,1.98,10.19,2.08h0.23h0.08h2.12c1.48,0,2.94-0.07,4.39-0.16c1.82-0.11,3.61-0.31,5.39-0.57
		c49.26-5.96,87.96-48.38,87.96-99.14C256.06,102.13,210.98,57.05,156.2,57.05"/>
	<path class="st1" d="M151.54,194.37l3.25-1.49c0,0-34.76-36.83-93.33-27.78l-4.82,0.53c2.25,20.29,10.68,39.42,24.13,54.78
		c13.45,15.36,31.3,26.23,51.12,31.14l1.54-6.24c-34.66-8.54-61.14-36.19-68.74-70.38C74.79,172.7,108.65,168.24,151.54,194.37"/>
	<path class="st1" d="M243.87,147.72c-0.17-0.29-0.2-0.9-0.03-1.12c0.59-0.73,0.44-1.38-0.05-2c-0.46-0.59-0.81-1.17-0.78-1.99
		c0.01-0.31-0.2-0.79-0.44-0.91c-0.84-0.44-0.82-1.17-0.8-1.96c0.01-0.55-0.19-1.12-0.09-1.64c0.31-1.6-1.49-1.51-1.8-2.6
		c-0.04-0.14-0.34-0.21-0.52-0.3c-0.05-0.03-0.13,0-0.18-0.02c-0.75-0.34-1.53-0.63-2.25-1.05c-0.51-0.3-0.93-0.76-1.4-1.15
		c-0.64-1.54-0.7-1.6-1.95-1.52c-0.82-1.57-1.48-0.13-2.24,0.18c-0.15-0.22-0.24-0.51-0.43-0.62c-0.58-0.35-0.63-1.49-1.52-1.27
		c-0.75,0.19-1.28,0.18-1.62-0.65c-0.06-0.15-0.27-0.25-0.43-0.34c-0.65-0.37-1.3-0.72-2.1-1.16c-1.16,0.36-2.55,0.78-3.67,1.13
		c-0.67-0.03-1.31-0.25-1.48-0.04c-0.75,0.92-1.4,1.93-2.01,2.96c-0.42,0.71-1.77,0.97-2.28,0.41c-0.47,0.22-0.89,0.54-1.35,0.6
		c-0.59,0.08-0.76,0.39-0.99,0.91c-0.3,0.68-0.71,1.59-1.28,1.82c-1.21,0.47-1.04,1.9-1.97,2.58c-0.3,0.22-0.42,0.7-0.54,1.19
		c0.18,0.08,0.4,0.14,0.44,0.27c0.31,1.09,2.11,1,1.8,2.6c-0.1,0.52,0.1,1.09,0.09,1.64c-0.01,0.79-0.04,1.53,0.8,1.96
		c0.24,0.12,0.45,0.6,0.44,0.91c-0.03,0.82,0.31,1.4,0.78,1.99c0.49,0.62,0.64,1.27,0.05,2c-0.18,0.22-0.14,0.83,0.03,1.12
		c0.53,0.91,1.22,1.72,0.31,2.83c-0.18,0.22-0.09,0.68-0.13,1.11c-0.74-0.15-0.99,0.23-0.99,0.94c0,0.19-0.14,0.5-0.29,0.57
		c-0.96,0.42-0.83,1.31-0.93,2.13c-0.04,0.32-0.16,0.77-0.36,0.91c0.48,0.6,1.16,1.25,2.17,0.59c0.16-0.1,0.74,0.13,0.79,0.3
		c0.3,1.14,3.44,3.67,4.44,3.62c1.53-0.07,3.02-0.98,4.58-0.33c-0.09,2.94-0.23,7.28-0.43,9.21c-0.16,1.56-0.46,2.83-0.84,3.86
		c-7.8-0.3-17.2,0.14-26.85,2.46c-0.26-0.63-0.44-1.34-0.51-2.14c-0.2-2.13-0.32-7.06-0.37-9.87c0.18,0,0.39-0.07,0.58-0.08
		c0.43-0.03,2.72,0.13,3.48-0.33c0.17,0.34,0.29,0.58,0.33,0.66c0.57,0.08,1.11-0.02,1.39,0.23c0.47,0.4,0.75,0.36,1.19,0
		c0.27-0.22,0.66-0.28,0.99-0.43c0.28-0.12,0.74-0.18,0.8-0.38c0.31-0.98,1.26-1,1.87-1.51c0.36-0.3,0.66-0.69,0.99-1.03
		c0.14-0.15,0.27-0.37,0.44-0.44c1.29-0.53,1.96-1.45,1.8-2.97c-0.07-0.62,0.08-1.11,0.73-1.39c0.02-0.01,0.03-0.02,0.04-0.03
		c0.2-0.14,0.32-0.6,0.36-0.91c0.1-0.82-0.03-1.71,0.93-2.13c0.15-0.07,0.3-0.37,0.29-0.57c0-0.71,0.26-1.09,0.99-0.94
		c0.04-0.43-0.05-0.89,0.13-1.11c0.9-1.11,0.22-1.92-0.32-2.83c-0.16-0.29-0.2-0.9-0.03-1.12c0.6-0.73,0.44-1.38-0.05-2
		c-0.46-0.59-0.81-1.17-0.78-1.99c0.01-0.31-0.2-0.79-0.44-0.91c-0.84-0.44-0.82-1.17-0.8-1.96c0.01-0.55-0.19-1.12-0.09-1.64
		c0.31-1.6-1.49-1.51-1.8-2.6c-0.03-0.12-0.26-0.19-0.44-0.27c-0.03-0.01-0.06-0.02-0.09-0.04c-0.05-0.02-0.13,0-0.18-0.02
		c-0.76-0.34-1.53-0.63-2.25-1.05c-0.51-0.3-0.93-0.76-1.4-1.15c-0.64-1.54-0.7-1.6-1.95-1.52c-0.82-1.57-1.48-0.13-2.24,0.18
		c-0.15-0.22-0.24-0.51-0.43-0.62c-0.58-0.35-0.63-1.49-1.52-1.27c-0.75,0.19-1.28,0.18-1.62-0.65c-0.06-0.15-0.27-0.25-0.43-0.34
		c-0.65-0.37-1.3-0.72-2.1-1.16c-1.16,0.36-2.55,0.78-3.67,1.13c-0.67-0.03-1.31-0.25-1.48-0.04c-0.75,0.92-1.4,1.93-2.01,2.96
		c-0.42,0.71-1.77,0.97-2.28,0.41c-0.47,0.22-0.9,0.54-1.36,0.6c-0.59,0.08-0.76,0.39-0.99,0.91c-0.3,0.68-0.71,1.59-1.28,1.82
		c-1.21,0.47-1.05,1.9-1.97,2.58c-0.51,0.38-0.5,1.48-0.86,2.17c-0.23,0.44-0.67,0.84-1.11,1.05c-0.8,0.38-1.01,0.71-0.72,1.61
		c0.1,0.29,0.27,0.61,0.23,0.89c-0.13,1-0.36,1.98-0.5,2.98c-0.01,0.07-0.02,0.14-0.03,0.22c-0.23,1.61-0.47,3.21-0.61,4.83
		c-0.05,0.63,0.15,1.3,0.32,1.93c0.27,1.01,0.92,3.49,1.43,3.49c0.76,0.01,1.38,0.1,0.97,1.24c0.97,0.09,1.47,0.62,2.04,1.34
		c0.48,0.61,1.23,1.82,2.49,1.01c0.08-0.05,0.26-0.02,0.43,0.04c0.17,0.07,0.34,0.17,0.36,0.26c0.3,1.14,3.44,3.67,4.44,3.62
		c1.1-0.05,3.89-0.54,5.8-0.73c-0.09,2.89-0.24,7.9-0.45,10.02c-0.12,1.16-0.32,2.16-0.57,3.02c-2.94,0.86-5.88,1.9-8.8,3.15
		c-5.47,2.36-11.28,5.07-17.09,7.9c-0.39-0.81-0.8-2.18-1.01-4.47c-0.17-1.83-0.27-6.17-0.31-8.48c0.41-0.02,2.34,0.1,2.99-0.27
		c0.15,0.28,0.25,0.48,0.28,0.55c0.49,0.06,0.96-0.01,1.21,0.19c0.41,0.34,0.65,0.3,1.03,0c0.23-0.19,0.57-0.24,0.86-0.35
		c0.24-0.1,0.64-0.15,0.7-0.32c0.27-0.82,1.09-0.83,1.62-1.26c0.31-0.25,0.57-0.57,0.85-0.86c0.12-0.13,0.23-0.31,0.38-0.37
		c1.12-0.45,1.7-1.22,1.56-2.48c-0.06-0.52,0.07-0.93,0.63-1.17c0.19-0.08,0.32-0.51,0.35-0.79c0.09-0.69-0.03-1.43,0.81-1.78
		c0.13-0.05,0.26-0.31,0.26-0.47c0-0.59,0.22-0.91,0.86-0.78c0.03-0.36-0.04-0.74,0.11-0.93c0.69-0.81,0.31-1.43-0.1-2.09
		c-0.15-0.05-0.3-0.08-0.37-0.04c-1.09,0.68-1.73-0.33-2.15-0.85c-0.49-0.6-0.92-1.05-1.76-1.12c0.35-0.95-0.18-1.04-0.84-1.04
		c-0.44,0-1-2.08-1.24-2.92c-0.15-0.52-0.32-1.08-0.27-1.61c0.12-1.35,0.33-2.7,0.53-4.04c-0.02-0.01-0.04-0.02-0.06-0.03
		c-0.44-0.25-0.81-0.64-1.21-0.96c-0.55-1.29-0.61-1.34-1.69-1.27c-0.71-1.31-1.28-0.11-1.94,0.15c-0.13-0.18-0.21-0.42-0.37-0.52
		c-0.5-0.29-0.55-1.25-1.31-1.07c-0.65,0.16-1.11,0.15-1.4-0.54c-0.05-0.13-0.23-0.21-0.37-0.29c-0.56-0.31-1.13-0.6-1.82-0.97
		c-1,0.3-2.21,0.65-3.18,0.94c-0.58-0.03-1.14-0.21-1.28-0.03c-0.65,0.77-1.21,1.62-1.74,2.48c-0.37,0.59-1.54,0.81-1.97,0.34
		c-0.4,0.18-0.77,0.45-1.17,0.5c-0.51,0.07-0.66,0.33-0.86,0.76c-0.27,0.57-0.61,1.33-1.11,1.52c-1.05,0.4-0.91,1.59-1.7,2.15
		c-0.44,0.32-0.43,1.24-0.75,1.82c-0.2,0.37-0.58,0.71-0.96,0.88c-0.69,0.32-0.87,0.6-0.62,1.34c0.08,0.24,0.23,0.51,0.2,0.74
		c-0.11,0.83-0.31,1.65-0.43,2.49c-0.21,1.4-0.43,2.81-0.56,4.22c-0.05,0.53,0.13,1.09,0.27,1.61c0.24,0.84,0.8,2.92,1.24,2.92
		c0.66,0.01,1.19,0.08,0.84,1.04c0.84,0.07,1.27,0.52,1.76,1.12c0.42,0.51,1.07,1.52,2.15,0.85c0.14-0.09,0.64,0.11,0.68,0.25
		c0.26,0.95,2.98,3.07,3.84,3.03c1.07-0.05,4-0.56,5.6-0.66c-0.07,2.38-0.2,6.76-0.38,8.59c-0.34,3.4-1.08,5.56-1.66,6.8
		c-22.4,11.17-43.37,23.22-43.37,23.22h5.13c5.34-3,38.06-18.6,61.16-23.95c23.1-5.35,54.96-2.35,54.96-2.35l3.42-11.33
		c0,0-5.98-1.57-15.08-2.29c-0.49-1.14-0.88-2.55-1.04-4.28c-0.19-2.09-0.31-6.91-0.37-9.74c0.33,0.03,0.68,0.13,1.04,0.26
		c0.21,0.07,0.48-0.04,0.73-0.06c0.43-0.03,0.97-0.22,1.27-0.02c0.82,0.54,1.45,0.15,2.21-0.31c0.17,0.34,0.29,0.57,0.33,0.66
		c0.57,0.08,1.11-0.02,1.39,0.23c0.47,0.4,0.75,0.36,1.19,0c0.27-0.22,0.66-0.28,0.99-0.42c0.28-0.12,0.74-0.18,0.8-0.38
		c0.31-0.98,1.26-1,1.87-1.51c0.36-0.3,0.66-0.69,0.98-1.03c0.14-0.15,0.27-0.37,0.44-0.44c1.29-0.53,1.96-1.45,1.8-2.97
		c-0.07-0.62,0.08-1.11,0.73-1.39c0.22-0.1,0.36-0.6,0.4-0.94c0.1-0.82-0.03-1.71,0.93-2.13c0.15-0.07,0.3-0.37,0.3-0.57
		c0-0.71,0.26-1.09,0.99-0.94c0.04-0.43-0.05-0.89,0.13-1.11C245.09,149.45,244.4,148.64,243.87,147.72"/>
	<path class="st1" d="M42.43,229.61l-4.87-8.69c-2.68-4.79-1.26-8.15,1.5-9.7c2.37-1.33,4.62-0.89,6.04,0.24
		c-0.28-1.69,0.08-4.49,2.9-6.07c3.69-2.06,7.79-0.58,10.15,3.65l5.02,8.96L42.43,229.61z M46.19,216.77
		c-1.36-2.43-2.92-2.82-4.56-1.89c-1.65,0.92-1.94,2.66-0.83,4.64l2.55,4.56l5.27-2.95L46.19,216.77z M57.97,215.88l-2.47-4.41
		c-1.39-2.49-3.23-3.23-5.35-2.04c-1.86,1.04-2.4,2.96-0.82,5.77l2.35,4.2L57.97,215.88z"/>
	<path class="st1" d="M28.89,201.8l13.57-4.26c4.69-1.47,5.25-4.38,4.44-6.97c-0.95-3.02-3.11-4.53-7.6-3.12l-13.57,4.26l-1.34-4.26
		l13.34-4.18c7.64-2.4,11.01,1.37,12.57,6.32c1.56,4.98,0.78,9.94-6.59,12.26l-13.47,4.22L28.89,201.8z"/>
	<path class="st1" d="M37.34,156.84c4.37,0.6,7.77,3.52,8.3,9.23c0.68,7.35-4.29,11.4-11.03,12.02c-6.46,0.6-12.61-2.49-13.3-9.98
		c-0.56-6.02,2.68-9.39,6.59-10.4l0.41,4.44c-2.03,0.81-3.74,2.42-3.43,5.8c0.42,4.55,4.69,5.98,9.17,5.57
		c4.21-0.39,8.5-2.44,8.05-7.3c-0.32-3.45-2.62-4.48-4.36-4.94L37.34,156.84z"/>
	<path class="st1" d="M21.01,150.33l0.47-4.41l10.93,1.16c-1.67-1.8-6.65-7.65-9.86-11.27l0.57-5.36l8.84,10.78l14.84-8.65
		l-0.57,5.33l-11.73,6.7l2.24,2.93l8.37,0.89l-0.47,4.41L21.01,150.33z"/>
	
		<rect x="34.72" y="113.46" transform="matrix(0.2508 -0.9681 0.9681 0.2508 -93.6514 129.6817)" class="st1" width="4.47" height="23.77"/>
	<path class="st1" d="M50.2,120.86l-21.77-9.53l2.26-5.16c6.22-0.69,18.19-2.16,21.02-2.2l0.01-0.03c-2.55-0.86-6.2-2.45-9.75-4.01
		l-7.17-3.14l1.64-3.74l21.77,9.53l-2.12,4.85c-5.52,0.62-18.84,2.02-21.85,2.13l-0.01,0.03c2.18,0.77,6.37,2.57,10.31,4.29
		l7.33,3.21L50.2,120.86z"/>
	<path class="st1" d="M72.58,82.14l-1.95,2.66c-0.63-0.25-1.43-0.67-2.35-1.26c0.7,2.01,0.4,4.56-1.75,7.49
		c-4.07,5.54-10.51,5.49-15.96,1.49c-5.73-4.21-7.68-10.67-3.31-16.62c3.5-4.76,8.25-5.66,11.94-3.72l-2.62,3.57
		c-1.94-0.66-4.34-0.59-6.48,2.32c-3.01,4.1-0.63,7.93,3.03,10.62c3.54,2.6,8,3.61,10.91-0.34c2.78-3.79,0.77-6.51-1.44-8.13
		l-0.19-0.14l-3.38,4.6l-2.96-2.18L62,74.37L72.58,82.14z"/>
	<polygon class="st1" points="59.89,61.13 63.25,58.18 69.51,65.34 77.44,58.39 71.17,51.23 74.51,48.31 90.17,66.19 86.84,69.11 
		79.87,61.15 71.94,68.1 78.91,76.06 75.55,79 	"/>
	<path class="st1" d="M94.83,56.16l1.13,6.3l-3.84,2.15l-4.46-24.75l4.85-2.72l19.08,16.55l-4.1,2.3l-4.84-4.21L94.83,56.16z
		 M99.94,49.05c-4.27-3.83-6.84-6.09-8.34-7.57l-0.03,0.02c0.58,2.23,1.37,6.16,2.32,10.95L99.94,49.05z"/>
	<path class="st1" d="M130.29,38.2c-1.15-3.99-2.34-8.37-2.96-10.9l-0.17,0.05c0.22,4.62-0.14,13.76-0.42,21.6l-3.7,1.07
		c-3.51-5.6-9.11-14.24-11.38-18.27l-0.13,0.04c0.97,2.62,2.45,7.41,3.59,11.33l2.44,8.48l-3.96,1.14l-6.58-22.83l6.37-1.84
		c3.91,5.77,8.64,13.13,10.27,16.16l0.07-0.02c-0.26-2.89,0.17-12.41,0.56-19.28l6.14-1.77L137,45.98l-4.12,1.19L130.29,38.2z"/>
	<path class="st1" d="M143.97,38.69c0.74,2.5,2.59,3.59,5.57,3.41c3.05-0.18,4.24-1.56,4.12-3.48c-0.12-2.06-1.32-3.02-5.7-3.75
		c-6.23-1.1-8.07-3.19-8.27-6.45c-0.24-3.91,2.51-6.93,8.02-7.26c6.07-0.37,8.71,2.85,9.25,6.15l-4.49,0.27
		c-0.41-1.66-1.5-3.21-4.69-3.02c-2.37,0.14-3.68,1.22-3.56,3.11c0.11,1.85,1.29,2.54,5.29,3.22c6.92,1.2,8.48,3.72,8.68,6.94
		c0.25,4.15-2.69,7.32-8.79,7.69c-6,0.36-9.13-2.51-9.93-6.56L143.97,38.69z"/>
	<polygon class="st1" points="165.1,21.18 169.52,21.79 168.23,31.21 178.67,32.65 179.97,23.23 184.36,23.83 181.12,47.37 
		176.73,46.77 178.17,36.29 167.73,34.85 166.28,45.33 161.86,44.72 	"/>
	
		<rect x="180.02" y="36.15" transform="matrix(0.2894 -0.9572 0.9572 0.2894 99.6345 210.9635)" class="st1" width="23.77" height="4.47"/>
	<path class="st1" d="M204.08,44.95l-4.18,8.89l-3.98-1.87l10.11-21.51l9.11,4.28c4.6,2.16,5.87,5.83,4.3,9.19
		c-1.33,2.83-3.67,3.7-5.71,3.5c1.11,1.02,2.15,2.94,0.35,6.77l-0.47,0.99c-0.69,1.46-1.5,3.2-1.64,4.31l-3.86-1.81
		c0.07-1.11,0.81-2.77,1.83-4.95l0.18-0.37c1.21-2.58,1.08-4.08-2.52-5.78L204.08,44.95z M205.61,41.69l4.17,1.96
		c2.8,1.31,4.41,0.78,5.36-1.24c0.91-1.93,0.17-3.6-2.34-4.78l-4.32-2.03L205.61,41.69z"/>
	<polygon class="st1" points="234.49,62.57 225.18,55.81 221.14,61.36 231.4,68.82 228.79,71.46 215.46,61.77 229.43,42.55 
		242.68,52.18 240.5,55.18 230.78,48.11 227.34,52.83 236.65,59.6 	"/>
	<path class="st1" d="M258.11,95.06c-4.05,1.73-8.48,0.97-11.87-3.67c-4.36-5.96-2.16-11.99,3.3-15.98
		c5.24-3.83,12.1-4.33,16.54,1.74c3.56,4.88,2.51,9.44-0.32,12.31l-2.63-3.61c1.33-1.74,1.97-3.99-0.03-6.74
		c-2.7-3.69-7.1-2.73-10.73-0.07c-3.41,2.49-6.04,6.46-3.17,10.39c2.05,2.8,4.55,2.5,6.27,2.01L258.11,95.06z"/>
	<path class="st1" d="M273.68,117.12c-6.04,2.66-12.85,1.41-15.92-5.57c-2.95-6.69,0.46-12.43,6.68-15.17
		c6.29-2.77,12.88-1.09,15.82,5.61C283.04,108.28,280.25,114.23,273.68,117.12 M266.39,100.55c-4.4,1.94-7.02,5.53-5.2,9.68
		c1.96,4.46,6.41,4.5,10.56,2.67c4.31-1.89,6.97-5.32,5.07-9.62C274.94,99.01,270.76,98.63,266.39,100.55"/>
	<path class="st1" d="M287.74,125.08l-13.95,2.73c-4.82,0.94-5.7,3.77-5.18,6.44c0.61,3.1,2.59,4.85,7.21,3.94l13.95-2.73l0.86,4.38
		l-13.72,2.68c-7.85,1.53-10.79-2.58-11.79-7.67c-1-5.12,0.33-9.97,7.91-11.45l13.85-2.71L287.74,125.08z"/>
	<path class="st1" d="M267.7,149l23.76,0.56l-0.13,5.63c-5.5,3-16.01,8.9-18.61,10.01l0,0.03c2.68-0.18,6.67-0.08,10.55,0.01
		l7.83,0.18l-0.1,4.08l-23.76-0.56l0.12-5.29c4.87-2.67,16.67-9.02,19.41-10.26l0-0.04c-2.3,0.12-6.87,0.05-11.16-0.06l-8-0.19
		L267.7,149z"/>
	<path class="st1" d="M268.76,194.64c-3.94-1.98-6.21-5.86-4.86-11.43c1.74-7.17,7.76-9.39,14.34-7.79
		c6.31,1.53,11.12,6.45,9.34,13.76c-1.43,5.87-5.59,8.01-9.61,7.7l1.05-4.34c2.18-0.11,4.33-1.07,5.13-4.37
		c1.08-4.44-2.49-7.18-6.87-8.24c-4.1-1-8.83-0.45-9.98,4.29c-0.82,3.37,1.02,5.09,2.51,6.09L268.76,194.64z"/>
	
		<rect x="268.03" y="191" transform="matrix(0.3784 -0.9256 0.9256 0.3784 -19.8135 376.2707)" class="st1" width="4.46" height="23.77"/>
	<polygon class="st1" points="276.83,217.5 274.6,221.37 257.19,211.36 251.19,221.77 248.27,219.5 256.23,205.65 	"/>
	<path class="st1" d="M215.07,267.81l-0.86-1.42c14.34-7.35,26.85-17.81,36.17-30.24l1.45,0.92
		C242.35,249.7,229.64,260.33,215.07,267.81"/>
	<path class="st1" d="M98.69,267.81l0.86-1.42c-14.34-7.35-26.85-17.81-36.17-30.24l-1.45,0.92
		C71.4,249.7,84.11,260.33,98.69,267.81"/>
	<path class="st1" d="M111.14,275.08c-0.58,1.62-0.26,3.33,1.36,3.91c1.39,0.5,2.06,0.02,2.61-0.57l2.64,0.94
		c-0.88,1.21-2.8,2.85-6.07,1.68c-3.5-1.25-4.04-4.49-3.02-7.31c1.2-3.35,3.79-5.21,7.21-3.99c3.65,1.3,3.9,4.46,2.98,7.04
		c-0.13,0.36-0.22,0.61-0.38,0.91L111.14,275.08z M116.46,275.1c0.5-1.46,0.29-2.87-1.32-3.44c-1.6-0.57-2.65,0.29-3.35,1.78
		L116.46,275.1z"/>
	<path class="st1" d="M123.04,280.76c0.01,1.07,0.66,1.82,1.94,2.14c1.3,0.32,1.93-0.05,2.12-0.84c0.21-0.85-0.21-1.32-1.86-2.19
		c-3.29-1.71-3.63-2.95-3.25-4.5c0.4-1.63,1.97-3.02,5.17-2.23c3.22,0.8,3.95,2.87,3.68,4.44l-2.59-0.64
		c0.02-0.55-0.13-1.51-1.68-1.89c-1.22-0.3-1.73,0.17-1.87,0.76c-0.16,0.63,0.15,1.05,1.93,1.98c3.41,1.72,3.69,3.11,3.28,4.76
		c-0.46,1.87-2.32,3.12-5.52,2.33c-3.24-0.8-4.24-2.73-4.01-4.78L123.04,280.76z"/>
	<path class="st1" d="M133.03,274.77l1.81,0.3l0.52-3.16l2.74,0.45l-0.52,3.16l2.32,0.38l-0.34,2.1l-2.32-0.38l-0.98,5.97
		c-0.15,0.95,0.05,1.39,1.02,1.55c0.22,0.04,0.55,0.09,0.83,0.09l-0.32,1.92c-0.61,0.11-1.41,0-2.02-0.1
		c-2.06-0.34-2.63-1.56-2.31-3.51l1.04-6.37l-1.81-0.3L133.03,274.77z"/>
	
		<rect x="140.75" y="284.4" transform="matrix(0.1032 -0.9947 0.9947 0.1032 -156.4835 398.2216)" class="st1" width="3.72" height="2.98"/>
	<path class="st1" d="M153.47,288.52l0-0.18c-0.04-2.42,1.15-4.57,4.25-6.93c2.14-1.65,2.78-2.22,2.76-3.61
		c-0.02-1.34-0.71-2.2-2.14-2.18c-1.57,0.03-2.18,0.96-2.38,2.42l-2.71,0.05c0.18-2.54,1.8-4.6,5.05-4.66
		c3.63-0.06,4.95,2.13,4.98,4.28c0.04,2.17-0.86,3.17-3.54,5.2c-1.88,1.42-2.72,2.38-2.99,3.21l7.23-0.13l-0.32,2.36L153.47,288.52z
		"/>
	<path class="st1" d="M177.23,279.35c0.48,3.87-0.24,7.82-4.49,8.35c-4.2,0.52-5.9-2.94-6.39-6.9c-0.49-3.91,0.43-7.75,4.57-8.27
		C174.95,272.03,176.73,275.33,177.23,279.35 M169.22,280.42c0.34,2.71,1.02,5.31,3.27,5.03c2.22-0.28,2.25-2.81,1.88-5.74
		c-0.35-2.82-1.06-5.22-3.17-4.96C169.09,275.02,168.82,277.24,169.22,280.42"/>
	<path class="st1" d="M181.59,286.12l-0.04-0.17c-0.55-2.36,0.16-4.71,2.68-7.67c1.75-2.07,2.25-2.76,1.93-4.11
		c-0.31-1.31-1.16-2-2.56-1.68c-1.53,0.36-1.93,1.4-1.81,2.87l-2.64,0.62c-0.36-2.52,0.79-4.88,3.95-5.62
		c3.53-0.83,5.28,1.04,5.77,3.13c0.5,2.12-0.17,3.29-2.36,5.83c-1.53,1.79-2.15,2.9-2.24,3.77l7.04-1.66l0.19,2.37L181.59,286.12z"
		/>
	<path class="st1" d="M202.89,272.09c1.3,3.68,1.43,7.69-2.6,9.12c-3.99,1.41-6.39-1.62-7.72-5.38c-1.31-3.72-1.23-7.67,2.7-9.05
		C199.08,265.43,201.54,268.27,202.89,272.09 M195.28,274.85c0.91,2.58,2.13,4.97,4.27,4.22c2.11-0.74,1.59-3.22,0.61-6.01
		c-0.95-2.68-2.15-4.87-4.15-4.17C194,269.6,194.21,271.83,195.28,274.85"/>
	<path class="st1" d="M156.28,117.98c-0.08-0.17-1.02-0.19-1.5-0.36c-0.23-0.08-1.04-0.73-1.21-0.87l-0.01-0.01
		c0,0-0.26-0.22-0.35-0.21c-0.1,0.01-0.89,1.27-0.69,1.43c0.2,0.16,0.77,0.23,1.54,0.25c0.68,0.01,1.72,0.09,2.13,0
		C156.28,118.14,156.32,118.06,156.28,117.98"/>
	<path class="st1" d="M152.27,118.39c-0.07-0.13-0.11-0.28-0.14-0.4c-0.02-0.09-0.04-0.17-0.07-0.23c-0.22-0.45-0.62-0.84-0.84-1.03
		c-0.05,0.02-0.1,0.04-0.16,0.04c-0.19,0.02-0.36-0.06-0.37-0.18c-0.01-0.12,0.13-0.23,0.32-0.25c0.13-0.01,0.24,0.02,0.31,0.08
		l1.43-0.42c-0.22-0.09-0.91-0.34-1.8-0.29c-1.13,0.07-2.28,0.63-3.06,1.07v0c-0.07,0.02-0.14,0.04-0.21,0.05
		c-0.67,0.11-12.49,1.27-13.3,1.13c-0.81-0.14-4.86-1.02-5.14-1.65c-0.28-0.63,2.97-8.6,3.2-9.08c1.14-2.44,2.36-5.93,2.36-5.93
		s1.67-7.92,0.35-8.24c-0.25-0.06-0.87,2.51-1.55,2.96c-0.6,0.4-0.78-2.32-1.56-1.67c-0.43,0.36-0.35,2.86-0.87,2
		c-1.53-2.55-1.26,0.95-1.62,1.2c-2.61,1.9-4.83,4.14-5.28,5.01c-1.11,1.8-3.54,8.62-4.04,8.61c-1.06-0.03-10.38-10.08-11.01-10.51
		c-0.63-0.42-5.07-5.76-5.89-10.24c-0.21-1.17-1.22-1.14-0.85,4.73c0.05,0.74-2.11-2.94-2.39-1.73c-0.33,1.41,1.05,2.75,0.59,3.86
		c-0.09,0.21-1.7-0.74-1.7,0.03c0,6.01,6.65,19.17,11.64,21.07c4.99,1.9-8.07,3.81-8.73,4.09c-0.67,0.28-1.16,1.01-0.28,1.21
		c1.89,0.29-0.15,1.45,0.57,1.93c0.37,0.09,0.78,0.1,1.01,0.36c0.24,0.35-0.72,1.57-0.32,1.75c0.4,0.18,6.04-1.8,8.32-2.06
		c1.12-0.12,4.67,0.79,7.68,0c3.01-0.79,9.42-4.52,10.77-4.75c1.35-0.24,19.19-1.6,19.19-1.6c1.57,0.15,3.52-0.33,3.95-0.46
		C152.61,118.85,152.42,118.68,152.27,118.39"/>
</g>
</svg>
