<?xml version="1.0" encoding="UTF-8"?>
<svg width="55px" height="56px" viewBox="0 0 55 56" version="1.1" xmlns="http://www.w3.org/2000/svg" xmlns:xlink="http://www.w3.org/1999/xlink">
    <!-- Generator: Sketch 57.1 (83088) - https://sketch.com -->
    <title>White logo</title>
    <desc>Created with Sketch.</desc>
    <g id="Stage-3" stroke="none" stroke-width="1" fill="none" fill-rule="evenodd">
        <g id="Time-off-sick-–-long-term-illness" transform="translate(-20.000000, -14.000000)" fill="#FFFFFF">
            <g id="White-logo" transform="translate(20.000000, 14.000000)">
                <path d="M48.7404092,24.3882244 L49.0920716,27.9227497 L50.2173913,27.8520592 L50.0063939,25.731344 L51.2723785,25.6606535 L51.4130435,26.9330826 L52.6086957,26.8623921 L52.3976982,25.448582 L53.6636829,25.307201 L53.8746803,27.4279162 L55,27.3572257 L54.6483376,23.8227004 L48.7404092,24.3882244 Z M51.2723785,19.9347226 L51.483376,20.5002466 L51.483376,20.5002466 C51.6240409,20.7830087 51.9757033,20.9243897 52.2570332,20.7830087 C52.5383632,20.7123181 52.7493606,20.3588656 52.6790281,20.0761036 L52.5383632,19.5812701 L51.2723785,19.9347226 Z M47.544757,19.7226511 L47.9667519,21.2071517 L50.2877238,20.4295561 L50.3580563,20.7830087 L48.2480818,22.1968188 L48.6700767,23.6106289 L50.9910486,21.9140567 C51.4130435,22.2675093 52.0460358,22.4088903 52.6086957,22.1968188 C53.4526854,21.9140567 53.9450128,21.0657707 53.8043478,20.2174846 L53.101023,17.7433169 L47.544757,19.7226511 Z M46.5601023,17.4605549 L47.1930946,18.8036745 L52.4680307,16.1881258 L51.7647059,14.7743157 L46.5601023,17.4605549 Z M43.6061381,13.2191246 L44.4501279,14.3501726 L46.2787724,12.9363625 L46.9117647,13.7139581 L45.0127877,15.2691492 L45.92711,16.4001973 L50.4987212,12.6536005 L49.6547315,11.4518619 L47.826087,12.865672 L47.1930946,12.0880765 L48.9514066,10.6035758 L48.1074169,9.40183725 L43.6061381,13.2191246 L43.6061381,13.2191246 L43.6061381,13.2191246 Z M41.3554987,8.7656227 C41.1445013,9.04838472 41.0741688,9.40183725 41.0741688,9.82598028 C41.0741688,10.2501233 41.1445013,10.6035758 41.3554987,11.0277189 C41.7071611,11.8053144 42.6214834,12.2294575 43.4654731,12.017386 C44.3797954,11.7346239 44.9424552,10.8156474 44.8017903,9.89667079 L44.3797954,8.27078916 C44.3094629,8.12940815 44.3797954,7.91733663 44.5204604,7.77595562 C44.6611253,7.63457461 44.8017903,7.63457461 44.9424552,7.70526511 C45.1534527,7.84664612 45.2941176,8.05871764 45.3644501,8.27078916 C45.3644501,8.48286068 45.3644501,8.69493219 45.2237852,8.90700371 L46.2787724,9.33114674 C46.4897698,8.90700371 46.4897698,8.48286068 46.4194373,8.05871764 C46.3491049,7.63457461 46.0677749,7.28112208 45.786445,6.99836006 C45.2941176,6.57421702 44.5907928,6.43283601 43.9578005,6.71559803 C43.2544757,6.92766955 42.8324808,7.63457461 42.9028133,8.34147966 L43.3248082,10.2501233 C43.3248082,10.4621948 43.1841432,10.6742664 42.9731458,10.8156474 C42.6918159,10.9570284 42.3401535,10.7449569 42.269821,10.4621948 C42.1994885,10.2501233 42.1994885,10.1087423 42.1994885,9.89667079 C42.1994885,9.68459927 42.269821,9.47252775 42.3401535,9.26045624 L41.3554987,8.7656227 Z M35.0255754,7.13974107 L36.2212276,7.63457461 L37.7685422,4.59488287 L36.9948849,8.12940815 L37.6982097,8.48286068 L40.0191816,6.07938348 L38.5421995,8.90700371 L39.6675192,9.54321826 L42.4808184,4.38281135 L40.7225064,3.39314427 L38.9641944,5.23109742 L39.5971867,2.68623921 L37.9092072,1.62588163 L35.0255754,7.13974107 Z M32.5639386,4.24143034 L33.4079284,4.45350185 L33.4079284,2.4741677 L32.5639386,4.24143034 Z M30.4539642,6.07938348 L31.5792839,6.36214551 L32.0012788,5.30178792 L33.4079284,5.58454994 L33.4079284,6.71559803 L34.673913,6.99836006 L34.673913,0.848286068 L32.915601,0.494833539 L30.4539642,6.07938348 Z M25.6713555,5.93800247 L27.0780051,5.93800247 L27.1483376,3.7465968 L28.1329923,3.7465968 L28.0626598,6.00869298 L29.5396419,6.00869298 L29.7506394,0.0706905056 L28.2736573,0.0706905056 L28.2033248,2.4741677 L27.2186701,2.4741677 L27.2890026,0.0706905056 L25.8120205,0 L25.6713555,5.93800247 Z M24.1240409,6.2207645 L24.6867008,6.07938348 L24.0537084,3.18107275 L22.2250639,3.60521579 L22.4360614,4.66557337 L23.1393862,4.59488287 C23.1393862,4.66557337 23.1393862,4.73626388 23.1393862,4.87764489 C23.1393862,4.94833539 23.1393862,5.08971641 23.1393862,5.16040691 C22.9987212,5.30178792 22.7877238,5.51385944 22.5767263,5.51385944 C22.2953964,5.58454994 22.084399,5.44316893 21.943734,5.23109742 C21.7327366,4.80695438 21.5920716,4.38281135 21.5217391,3.88797781 C21.3810742,3.32245376 21.3810742,2.75692972 21.3810742,2.19140567 C21.3810742,1.97933416 21.5217391,1.83795315 21.7327366,1.76726264 C21.943734,1.69657214 22.084399,1.76726264 22.2250639,1.97933416 C22.2953964,2.12071517 22.4360614,2.26209618 22.5063939,2.4741677 C22.5767263,2.5448582 22.5767263,2.68623921 22.6470588,2.82762023 L23.842711,2.40347719 C23.7723785,2.19140567 23.702046,1.97933416 23.6317136,1.83795315 C23.4910486,1.62588163 23.4207161,1.41381011 23.2800512,1.2724291 C22.8580563,0.636214551 22.1547315,0.424143034 21.5217391,0.565524045 C20.9590793,0.706905056 20.4667519,1.13104809 20.2557545,1.69657214 C19.9744246,2.40347719 19.9040921,3.18107275 20.044757,3.95866832 C20.1150895,4.73626388 20.4667519,5.51385944 20.9590793,6.15007399 C21.3810742,6.64490753 22.0140665,6.85697905 22.6470588,6.71559803 C23.1393862,6.64490753 23.5613811,6.36214551 23.842711,5.86731197 L24.1240409,6.2207645 Z M16.1764706,9.18976573 L17.3017903,8.69493219 L15.9654731,5.86731197 L18.8491049,7.91733663 L19.8337596,7.4931936 L17.2314578,1.97933416 L16.1061381,2.5448582 L17.3017903,5.0190259 L14.769821,3.18107275 L13.5741688,3.7465968 L16.1764706,9.18976573 Z M5.97826087,14.2794821 L6.6112532,13.148434 C6.40025575,13.0777435 6.18925831,12.9363625 5.97826087,12.865672 C5.76726343,12.7949815 5.4859335,12.724291 5.27493606,12.6536005 C4.57161125,12.6536005 4.00895141,13.007053 3.657289,13.6432676 C3.37595908,14.1381011 3.37595908,14.7743157 3.657289,15.3398397 C4.00895141,16.0467448 4.57161125,16.6122688 5.20460358,17.0364119 C5.83759591,17.4605549 6.54092072,17.7433169 7.31457801,17.7433169 C7.94757033,17.8140074 8.65089514,17.5312454 9.00255754,16.9657214 C9.49488491,16.3295068 9.49488491,15.4105302 9.07289003,14.7743157 C8.93222506,14.6329347 8.7915601,14.4915537 8.65089514,14.3501726 C8.51023018,14.2087916 8.36956522,14.0674106 8.22890026,13.9967201 L7.52557545,14.9863872 L7.87723785,15.2691492 C7.94757033,15.3398397 8.08823529,15.4812207 8.15856777,15.6226017 C8.29923274,15.8346733 8.29923274,16.1174353 8.15856777,16.3295068 C8.01790281,16.5415783 7.73657289,16.6829593 7.45524297,16.5415783 C6.9629156,16.4001973 6.47058824,16.1881258 6.04859335,15.9053638 C5.55626598,15.6226017 5.06393862,15.2691492 4.71227621,14.8450062 C4.57161125,14.7036252 4.57161125,14.4208631 4.71227621,14.2794821 C4.7826087,13.9967201 4.92327366,13.9260296 5.1342711,13.9967201 L5.1342711,13.9967201 C5.27493606,13.9967201 5.41560102,14.0674106 5.55626598,14.1381011 C5.69693095,14.1381011 5.83759591,14.2087916 5.97826087,14.2794821 L5.97826087,14.2794821 Z M0.84398977,21.1364612 L5.06393862,22.6916523 C5.27493606,22.7623428 5.55626598,22.7623428 5.76726343,22.6916523 C5.90792839,22.6916523 6.04859335,22.6209618 6.18925831,22.5502713 C6.6112532,22.3381998 6.89258312,21.9847473 7.10358056,21.5606042 C7.38491049,21.0657707 7.38491049,20.4295561 7.10358056,19.8640321 C7.03324808,19.7226511 7.03324808,19.5812701 6.89258312,19.5105796 C6.75191816,19.2278175 6.47058824,19.0864365 6.25959079,18.9450555 L2.39130435,17.2484834 L1.68797954,18.591603 L5.83759591,20.1467941 L5.83759591,20.1467941 C6.04859335,20.2881751 6.11892583,20.5709371 6.04859335,20.8536992 C5.97826087,21.1364612 5.69693095,21.2778422 5.41560102,21.2778422 L1.26598465,19.7226511 L0.84398977,21.1364612 Z M13.9258312,10.5328853 L15.1918159,9.68459927 L11.8861893,4.80695438 L10.6202046,5.65524045 L13.9258312,10.5328853 Z M10.2685422,14.3501726 L11.2531969,13.3605056 L10.1982097,12.300148 L9.9168798,11.3104809 L12.2378517,12.441529 L13.2928389,11.3811714 L9.56521739,9.54321826 L8.93222506,7.42250309 L8.08823529,8.20009865 L8.7915601,10.8156474 L7.10358056,9.11907523 L6.11892583,10.1087423 L10.2685422,14.3501726 Z M3.37595908,26.2261776 L4.71227621,26.3675586 L4.7826087,25.6606535 C4.71227621,25.3778915 4.50127877,25.16582 4.21994885,25.0951295 C3.86828645,25.024439 3.58695652,25.2365105 3.44629156,25.5192725 L3.37595908,26.2261776 Z M1.05498721,25.9434156 L2.25063939,26.0847966 L2.32097187,25.448582 C2.32097187,25.16582 2.03964194,24.883058 1.75831202,24.883058 C1.4769821,24.883058 1.19565217,25.024439 1.12531969,25.3778915 L1.05498721,25.9434156 Z M0,27.2865352 L5.76726343,27.9227497 L6.04859335,25.16582 C6.04859335,24.4589149 5.4859335,23.8227004 4.7826087,23.6813194 C4.07928389,23.5399384 3.3056266,23.9640814 3.02429668,24.6709865 C2.88363171,23.9640814 2.32097187,23.4692479 1.61764706,23.5399384 C0.914322251,23.5399384 0.351662404,24.1054624 0.281329923,24.8123675 L0,27.2865352 Z M3.72762148,37.9608015 L3.44629156,36.7590629 C3.3056266,36.7590629 3.16496164,36.7590629 3.02429668,36.8297534 C2.95396419,36.8297534 2.81329923,36.8297534 2.67263427,36.8297534 L2.67263427,36.8297534 C2.39130435,36.8297534 2.10997442,36.6176819 2.10997442,36.3349199 C2.03964194,36.0521579 2.18030691,35.8400864 2.39130435,35.6987053 C2.81329923,35.4866338 3.3056266,35.2745623 3.79795396,35.1331813 C4.29028133,34.9918003 4.7826087,34.8504193 5.27493606,34.7797288 C5.55626598,34.7797288 5.76726343,34.9211098 5.83759591,35.1331813 C5.90792839,35.3452528 5.83759591,35.5573243 5.69693095,35.6280148 C5.55626598,35.6987053 5.4859335,35.8400864 5.34526854,35.9107769 C5.27493606,35.9814674 5.1342711,36.0521579 5.06393862,36.1228484 L5.4859335,37.3952775 C5.69693095,37.2538965 5.90792839,37.183206 6.04859335,37.041825 C6.25959079,36.9004439 6.40025575,36.7590629 6.6112532,36.5469914 C7.03324808,36.0521579 7.17391304,35.2745623 6.9629156,34.6383478 C6.75191816,34.0728237 6.25959079,33.5779902 5.62659847,33.4366092 C4.85294118,33.2952282 4.07928389,33.3659187 3.37595908,33.6486807 C2.60230179,33.9314427 1.96930946,34.3555857 1.40664962,34.9211098 C0.984654731,35.4866338 0.84398977,36.1935389 1.12531969,36.8297534 C1.26598465,37.324587 1.75831202,37.74873 2.32097187,37.890111 C2.53196931,37.9608015 2.81329923,37.9608015 3.02429668,37.9608015 C3.23529412,38.031492 3.51662404,38.031492 3.72762148,37.9608015 L3.72762148,37.9608015 Z M52.0460358,30.7503699 C51.7647059,30.7503699 51.5537084,30.5382984 51.5537084,30.1848459 C51.5537084,29.9020839 51.7647059,29.6900124 52.0460358,29.6900124 C52.3273657,29.6900124 52.6086957,29.9020839 52.6086957,30.1848459 C52.6086957,30.4676079 52.3273657,30.7503699 52.0460358,30.7503699 L52.0460358,30.7503699 Z M47.826087,35.0624908 L53.5230179,36.7590629 L54.5780051,33.4366092 L53.5230179,33.0831566 L52.9603581,34.9211098 L48.1777494,33.6486807 L47.826087,35.0624908 Z M47.0524297,37.3952775 L52.4680307,39.6573737 L53.101023,38.2435635 L47.6150895,35.9107769 L47.0524297,37.3952775 Z M47.8964194,40.6470407 L48.5997442,39.4453021 C48.4590793,39.3746116 48.3184143,39.3039211 48.1777494,39.2332306 C48.0370844,39.1625401 47.8964194,39.1625401 47.685422,39.0918496 C47.0524297,38.9504686 46.4194373,39.1625401 45.9974425,39.5866832 C45.3644501,40.1522072 45.2237852,41.0004933 45.5051151,41.7780888 C45.8567775,42.4143034 46.4194373,42.9798274 47.0524297,43.4039705 C47.685422,43.8281135 48.3887468,44.1108755 49.1624041,44.2522565 C49.8657289,44.2522565 50.4987212,43.898804 50.9207161,43.33328 C51.342711,42.6970654 51.342711,41.8487793 50.9207161,41.1418743 C50.8503836,41.0004933 50.7097187,40.8591123 50.5690537,40.7177312 C50.4283887,40.5763502 50.2877238,40.4349692 50.1470588,40.3642787 L49.443734,41.3539458 C49.5140665,41.4246363 49.584399,41.4953268 49.6547315,41.5660173 C49.7250639,41.6367078 49.8657289,41.7780888 49.9360614,41.8487793 C50.1470588,42.0608509 50.1470588,42.4143034 50.0063939,42.6263749 C49.8657289,42.8384464 49.584399,42.9091369 49.3030691,42.8384464 C48.8810742,42.6263749 48.4590793,42.4143034 48.0370844,42.1315414 C47.544757,41.8487793 47.1227621,41.4953268 46.7007673,41.0711838 C46.6304348,40.9298028 46.6304348,40.7177312 46.7007673,40.5056597 C46.7710997,40.3642787 46.9820972,40.2228977 47.1227621,40.2228977 C47.2634271,40.2935882 47.4040921,40.3642787 47.6150895,40.3642787 C47.685422,40.5056597 47.7557545,40.5763502 47.8964194,40.6470407 L47.8964194,40.6470407 Z M45.6457801,49.2005919 L46.6304348,48.2109248 L44.5204604,46.0902097 L47.685422,47.0798767 L48.4590793,46.3022812 L44.2391304,41.9901603 L43.3951407,42.8384464 L45.2941176,44.8177806 L42.3401535,43.898804 L41.3554987,44.8884711 L45.6457801,49.2005919 Z M37.7685422,47.7160913 L40.3005115,51.4626881 C40.370844,51.6040691 40.511509,51.6747596 40.5818414,51.7454501 C40.7225064,51.8161406 40.8631714,51.9575216 41.0038363,51.9575216 C41.6368286,52.1695932 42.3401535,52.0282121 42.9028133,51.6040691 C43.3248082,51.2506166 43.6061381,50.8264735 43.6764706,50.2609495 C43.6764706,50.048878 43.6764706,49.907497 43.6764706,49.6954255 C43.6061381,49.4833539 43.6061381,49.3419729 43.4654731,49.2005919 L40.9335038,45.3833046 L39.8785166,46.1609002 L42.4104859,49.766116 C42.5511509,50.048878 42.4808184,50.473021 42.1994885,50.614402 C41.9181586,50.755783 41.5664962,50.6850925 41.3554987,50.473021 L38.9641944,46.7971147 L37.7685422,47.7160913 Z M35.6585678,54.0075463 C36.2212276,54.5023798 37.0652174,54.6437609 37.6982097,54.2903083 C38.2608696,54.0075463 38.6828645,53.5127128 38.7531969,52.8764982 C38.8938619,52.0989026 38.7531969,51.3213071 38.471867,50.614402 C38.2608696,49.9781875 37.8388747,49.4126634 37.3465473,48.9178299 C36.7838875,48.4936869 36.0805627,48.3523059 35.4475703,48.5643774 C34.814578,48.7764489 34.3222506,49.3419729 34.2519182,50.048878 C34.1815857,50.8264735 34.3222506,51.6747596 34.673913,52.3816647 C34.8849105,53.0178792 35.2365729,53.5127128 35.6585678,54.0075463 L35.6585678,54.0075463 Z M36.57289,53.1592602 C36.713555,53.3006412 36.9245524,53.3713318 37.2058824,53.2299507 C37.4168798,53.1592602 37.5575448,52.9471887 37.5575448,52.7351172 C37.4872123,52.2402837 37.3465473,51.7454501 37.1355499,51.2506166 C36.9245524,50.755783 36.713555,50.2609495 36.4322251,49.766116 C36.2915601,49.5540444 36.0102302,49.5540444 35.7992327,49.624735 C35.5882353,49.6954255 35.4475703,49.907497 35.4475703,50.190259 C35.5882353,50.755783 35.7289003,51.3213071 35.9398977,51.8868311 C36.1508951,52.3109742 36.3618926,52.7351172 36.57289,53.1592602 L36.57289,53.1592602 Z M32.1419437,51.9575216 L33.4079284,51.6747596 L33.1969309,51.0385451 C33.1265985,50.8971641 33.056266,50.755783 32.9859335,50.5437115 C32.6342711,49.9781875 32.0012788,49.6954255 31.3682864,49.766116 C30.6649616,49.766116 30.0319693,50.2609495 29.7506394,50.8971641 C29.5396419,51.3919976 29.4693095,51.9575216 29.4693095,52.5230457 C29.4693095,53.5127128 29.8209719,54.4316893 30.3836317,55.2799754 C30.8056266,55.8454994 31.5089514,56.057571 32.2122762,55.9868805 C32.915601,55.8454994 33.5485934,55.2799754 33.7595908,54.5730703 C33.7595908,54.4316893 33.8299233,54.2196178 33.8299233,54.0075463 C33.8299233,53.7954748 33.8299233,53.6540938 33.8299233,53.4420223 L32.7046036,53.5127128 C32.7046036,53.7247843 32.7046036,53.9368558 32.7046036,54.0782368 C32.7046036,54.2196178 32.7046036,54.2903083 32.6342711,54.4316893 C32.5639386,54.6437609 32.2826087,54.8558324 32.0716113,54.8558324 C31.7902813,54.8558324 31.5792839,54.7144514 31.5089514,54.4316893 C31.3682864,53.9368558 31.2276215,53.3713318 31.0869565,52.8764982 L30.9462916,51.3919976 C30.9462916,51.1799261 31.157289,51.0385451 31.297954,50.9678546 C31.4386189,50.8971641 31.5792839,50.9678546 31.7199488,51.0385451 C31.7902813,51.1799261 31.8606138,51.2506166 31.9309463,51.3919976 C32.0012788,51.5333786 32.0716113,51.7454501 32.1419437,51.9575216 L32.1419437,51.9575216 Z M21.1700767,55.3506659 L22.5063939,55.6334279 L22.9987212,53.2299507 L25.3196931,50.048878 L24.1240409,49.8368065 L22.7877238,51.8161406 L22.4360614,49.5540444 L21.0294118,49.2005919 L21.6624041,53.0178792 L21.1700767,55.3506659 Z M15.5434783,53.1592602 L16.8094629,53.7954748 L18.8491049,49.4126634 L19.9744246,49.907497 L20.3964194,48.8471394 L16.8797954,47.1505673 L16.387468,48.1402343 L17.5127877,48.7057584 L15.5434783,53.1592602 Z M9.70588235,49.3419729 L13.2225064,44.3936375 L14.2774936,45.2419236 L13.9961637,48.0695438 L15.4731458,46.0902097 L16.387468,46.7971147 L12.870844,51.6747596 L12.0268542,51.0385451 L12.4488491,47.5747103 L10.6202046,49.9781875 L9.70588235,49.3419729 Z M9.77621483,41.0711838 L6.40025575,44.181566 C6.25959079,44.322947 6.18925831,44.464328 6.04859335,44.6763996 C5.97826087,44.8177806 5.90792839,44.9591616 5.90792839,45.1005426 C5.83759591,45.7367571 6.04859335,46.3729717 6.47058824,46.8678052 C6.82225064,47.2212578 7.31457801,47.4333293 7.80690537,47.5040198 C7.94757033,47.5040198 8.08823529,47.5040198 8.22890026,47.5040198 C8.51023018,47.4333293 8.72122762,47.3626388 8.93222506,47.2212578 L12.3785166,43.9694945 L11.6048593,43.0505179 L8.4398977,46.0195192 C8.22890026,46.2315907 7.87723785,46.2315907 7.66624041,46.0902097 C7.45524297,45.8781382 7.38491049,45.5953761 7.52557545,45.3126141 L10.831202,42.1315414 L9.77621483,41.0711838 Z M4.7826087,42.8384464 C5.62659847,42.8384464 6.47058824,42.5556844 7.17391304,42.1315414 C7.80690537,41.7780888 8.29923274,41.2125648 8.72122762,40.6470407 C9.00255754,40.0815167 9.00255754,39.3746116 8.65089514,38.8090876 C8.29923274,38.172873 7.66624041,37.74873 6.9629156,37.6780395 C6.04859335,37.6780395 5.20460358,37.9608015 4.43094629,38.4556351 C4.00895141,38.7383971 3.51662404,39.1625401 3.16496164,39.6573737 C2.74296675,40.3642787 2.74296675,41.2832553 3.23529412,41.9901603 C3.58695652,42.4849939 4.14961637,42.8384464 4.7826087,42.8384464 L4.7826087,42.8384464 Z M4.7826087,41.4953268 C5.27493606,41.3539458 5.76726343,41.1418743 6.18925831,40.8591123 C6.68158568,40.5763502 7.17391304,40.2228977 7.59590793,39.8694452 C7.66624041,39.7280642 7.66624041,39.5159926 7.59590793,39.3746116 C7.45524297,39.1625401 7.24424552,39.0918496 7.10358056,39.0918496 C6.54092072,39.2332306 5.97826087,39.5159926 5.4859335,39.7987547 C5.06393862,40.0108262 4.71227621,40.2935882 4.36061381,40.5763502 C4.14961637,40.7884217 4.14961637,41.0711838 4.29028133,41.2832553 C4.36061381,41.4246363 4.57161125,41.4953268 4.7826087,41.4953268 L4.7826087,41.4953268 Z M2.67263427,30.891751 C2.39130435,30.891751 2.18030691,30.6796794 2.18030691,30.3969174 C2.18030691,30.1141554 2.39130435,29.9020839 2.67263427,29.9020839 C2.95396419,29.9020839 3.23529412,30.1141554 3.23529412,30.3969174 C3.16496164,30.6089889 2.95396419,30.891751 2.67263427,30.891751 L2.67263427,30.891751 Z" id="Shape"></path>
                <g id="Group" transform="translate(8.534483, 9.491525)">
                    <path d="M27.1412025,14.9220497 C27.3514589,14.9220497 27.5617153,14.7115989 27.5617153,14.5011481 C27.5617153,14.2906973 27.3514589,14.0802465 27.1412025,14.0802465 C26.9309461,14.0802465 26.7206897,14.2906973 26.7206897,14.5011481 C26.7206897,14.7115989 26.9309461,14.9220497 27.1412025,14.9220497 Z M27.2463307,14.2906973 C27.3514589,14.2906973 27.4565871,14.3959227 27.4565871,14.5011481 C27.4565871,14.6063735 27.3514589,14.7115989 27.2463307,14.7115989 C27.1412025,14.7115989 27.0360743,14.6063735 27.0360743,14.5011481 C27.0360743,14.3959227 27.1412025,14.2906973 27.2463307,14.2906973 Z" id="Shape"></path>
                    <path d="M26.0844828,14.8585516 C26.0844828,14.8585516 26.0844828,14.8585516 26.0844828,14.8585516 C26.0844828,14.8585516 26.0844828,14.9293066 26.0844828,14.8585516 C26.1551724,15.0000616 26.2258621,15.0708166 26.2965517,15.1415716 C26.2965517,15.0000616 26.2258621,14.8585516 26.0844828,14.8585516 Z" id="Path"></path>
                    <path d="M29.0534483,18.820832 C29.0534483,18.750077 29.0534483,18.608567 29.0534483,18.537812 C29.0534483,18.679322 29.0534483,18.750077 29.0534483,18.820832 C29.0534483,18.820832 29.0534483,18.820832 29.0534483,18.820832 Z" id="Path"></path>
                    <path d="M27.0034483,15.4554336 C27.0034483,15.6658844 27.3034483,15.8763352 27.5034483,15.8763352 C27.8034483,15.8763352 28.0034483,15.6658844 28.0034483,15.4554336 C28.0034483,15.1397574 27.7034483,14.9293066 27.5034483,14.9293066 C27.2034483,14.9293066 27.0034483,15.2449828 27.0034483,15.4554336 Z M27.5034483,15.3502082 C27.6034483,15.3502082 27.7034483,15.4554336 27.7034483,15.560659 C27.7034483,15.6658844 27.6034483,15.7711098 27.5034483,15.7711098 C27.4034483,15.7711098 27.3034483,15.6658844 27.3034483,15.560659 C27.3034483,15.4554336 27.4034483,15.3502082 27.5034483,15.3502082 Z" id="Shape"></path>
                    <path d="M13.7137931,24.6227427 C13.7844828,24.6227427 13.7844828,24.6227427 13.7137931,24.6227427 L13.7137931,24.6227427 C13.7844828,24.5519877 13.7844828,24.5519877 13.7137931,24.6227427 C13.7844828,24.5519877 13.7844828,24.6227427 13.7137931,24.6227427 Z" id="Path"></path>
                    <path d="M29.6896552,17.6179969 L29.6189655,17.3349769 L29.6896552,17.6179969 C29.6896552,17.6179969 29.6896552,17.6179969 29.6896552,17.6179969 Z" id="Path"></path>
                    <path d="M26.2258621,13.9387365 C26.2258621,13.9387365 26.2965517,13.8679815 26.2258621,13.9387365 C26.2258621,13.8679815 26.2258621,13.9387365 26.2258621,13.9387365 Z" id="Path"></path>
                    <path d="M19.5103448,0.495285054 C8.90689655,0.495285054 0.353448276,9.05664099 0.353448276,19.6698921 C0.353448276,30.2123883 8.90689655,38.8444992 19.5103448,38.8444992 C30.1137931,38.8444992 38.6672414,30.2123883 38.6672414,19.6698921 C38.6672414,9.12739599 30.1137931,0.495285054 19.5103448,0.495285054 Z M26.1551724,15.7076117 C26.437931,15.6368567 26.437931,15.3538367 26.2965517,15.1415716 C26.2965517,15.2123267 26.2258621,15.3538367 26.0844828,15.3538367 C25.8017241,15.4953467 25.5896552,15.2830817 25.7310345,15.1415716 C25.2362069,14.1510015 24.812069,13.0896764 24.4586207,12.0283513 C24.387931,11.8868413 24.387931,11.8160863 24.3172414,11.6745763 C24.0344828,10.8962712 23.8931034,10.0472111 23.8931034,9.198151 C23.8931034,8.56135593 23.8931034,7.92456086 23.9637931,7.3585208 C24.1051724,6.58021572 24.6,5.94342065 25.2362069,5.58964561 C25.8017241,5.23587057 26.5086207,5.09436055 27.1448276,5.23587057 C28.2051724,5.44813559 29.2655172,5.87266564 30.1137931,6.58021572 C31.2448276,7.50003082 31.9517241,8.77362096 32.2344828,10.1179661 C32.3051724,10.1179661 32.3051724,10.1179661 32.3758621,10.1887211 C32.4465517,10.4009861 32.4465517,10.6132512 32.4465517,10.8255162 C32.4465517,11.0377812 32.4465517,11.1792912 32.4465517,11.3208012 C32.4465517,11.3915562 32.3758621,11.4623112 32.3051724,11.4623112 C32.3051724,11.4623112 32.1637931,11.4623112 32.1637931,11.3915562 L32.1637931,11.3208012 C32.1637931,11.2500462 32.1637931,11.2500462 32.1637931,11.1792912 L32.0931034,10.8962712 C32.0224138,10.8255162 31.9517241,10.7547612 31.8810345,10.7547612 C31.7396552,10.6840062 31.6689655,10.7547612 31.6689655,10.8255162 L30.537931,11.3208012 C30.6086207,11.1085362 30.6793103,10.8962712 30.6793103,10.4717411 C30.75,10.2594761 30.75,10.0472111 30.75,9.83494607 C30.8206897,9.83494607 30.8206897,9.76419106 30.8913793,9.76419106 C30.8913793,9.76419106 30.962069,9.76419106 30.962069,9.69343606 C30.962069,9.69343606 31.0327586,9.69343606 31.0327586,9.69343606 C31.0327586,9.62268105 31.0327586,9.48117103 30.962069,9.41041602 C30.962069,9.41041602 30.8913793,9.55192604 30.8206897,9.55192604 C30.75,9.55192604 30.6793103,9.48117103 30.6793103,9.41041602 C30.6793103,9.33966102 30.75,9.26890601 30.8206897,9.26890601 C30.8206897,9.26890601 30.8913793,9.26890601 30.8913793,9.33966102 C30.8206897,9.26890601 30.75,9.12739599 30.6793103,9.05664099 C30.6086207,9.05664099 30.4672414,9.05664099 30.3965517,9.12739599 C30.3258621,9.198151 30.2551724,9.26890601 30.2551724,9.33966102 C30.2551724,9.41041602 30.2551724,9.55192604 30.2551724,9.62268105 C30.3258621,9.76419106 30.3965517,9.90570108 30.537931,9.97645609 C30.537931,10.2594761 30.537931,10.4717411 30.4672414,10.7547612 C30.4672414,10.9670262 30.3965517,11.1792912 30.3258621,11.3915562 C29.9724138,11.1085362 29.6896552,10.7547612 29.4775862,10.4009861 C29.1241379,9.90570108 28.8413793,9.41041602 28.7,8.84437596 C28.6293103,8.41984592 28.487931,7.99531587 28.2758621,7.64154083 C28.1344828,7.42927581 27.9931034,7.28776579 27.8517241,7.07550077 C27.4982759,6.79248074 27.0034483,6.79248074 26.65,6.93399076 C26.2258621,7.14625578 26.0137931,7.50003082 25.9431034,7.99531587 C25.9431034,8.41984592 26.0137931,8.91513097 26.1551724,9.33966102 C26.2965517,9.97645609 26.5086207,10.6132512 26.862069,11.1792912 L28.487931,13.7972265 L28.487931,13.8679815 C28.487931,13.8679815 28.5586207,13.7972265 28.5586207,13.7972265 C28.6293103,13.7264715 28.7706897,13.7264715 28.912069,13.7264715 C28.912069,13.6557165 28.912069,13.5142065 28.912069,13.3726965 C28.9827586,13.3019414 29.0534483,13.1604314 29.1241379,13.1604314 C29.1948276,13.0896764 29.2655172,13.0896764 29.3362069,13.0189214 C29.4068966,12.9481664 29.4775862,12.8066564 29.4775862,12.7359014 L29.7603448,14.7877966 L29.4068966,15.0000616 C29.2655172,14.9293066 29.1948276,14.9293066 29.0534483,14.8585516 C28.912069,14.8585516 28.7706897,14.7877966 28.6293103,14.7877966 C28.487931,14.7877966 28.3465517,14.7877966 28.2758621,14.9293066 C28.1344828,15.0708166 28.1344828,15.0708166 28.0637931,15.2123267 C28.0637931,15.2830817 28.0637931,15.5661017 28.0637931,15.5661017 L27.2155172,15.8491217 C27.0741379,15.5661017 26.7913793,15.4953467 26.5086207,15.5661017 C26.2258621,15.6368567 26.0137931,15.9198767 26.0844828,16.2736518 L25.3775862,16.4859168 L23.8931034,14.7170416 L24.2465517,14.7877966 C24.387931,14.7877966 24.5293103,14.8585516 24.6706897,14.9293066 C24.7413793,15.0000616 24.812069,15.0000616 24.8827586,15.0708166 C24.9534483,15.1415716 24.9534483,15.2123267 25.0241379,15.3538367 C25.0948276,15.2123267 25.1655172,15.1415716 25.3068966,15.1415716 C25.3775862,15.1415716 25.5189655,15.1415716 25.5896552,15.1415716 C25.4482759,15.4953467 25.8017241,15.8491217 26.1551724,15.7076117 Z M29.8310345,15.7783667 L29.9724138,15.7076117 C30.0431034,15.8491217 30.1137931,16.0613867 30.1137931,16.2028968 C30.1844828,16.4151618 30.1137931,16.5566718 30.0431034,16.7689368 L29.9724138,16.4859168 C29.9724138,16.4151618 29.9724138,16.2736518 29.9724138,16.1321418 C29.9724138,15.9906317 29.8310345,15.7783667 29.8310345,15.7783667 Z M27.2862069,16.1321418 C27.9224138,15.9198767 28.5586207,15.7076117 29.1948276,15.3538367 L29.6189655,15.7076117 C29.0534483,15.9906317 28.5586207,16.2736518 27.9931034,16.4859168 L25.8017241,17.1227119 C25.6603448,17.1227119 25.5189655,17.0519569 25.5189655,16.9104468 C25.4482759,16.7689368 25.5189655,16.6981818 25.5896552,16.6274268 C26.1551724,16.4859168 26.7206897,16.3444068 27.2862069,16.1321418 Z M26.65,15.8491217 C26.862069,15.7783667 27.0741379,15.8491217 27.1448276,16.0613867 C27.0034483,16.1321418 26.862069,16.1321418 26.7206897,16.2028968 C26.5793103,16.2028968 26.5086207,16.2736518 26.3672414,16.2736518 C26.2965517,16.0613867 26.437931,15.8491217 26.65,15.8491217 Z M28.912069,15.1415716 C28.8413793,15.1415716 28.7706897,15.1415716 28.7,15.1415716 C28.6293103,15.1415716 28.6293103,15.2123267 28.5586207,15.2123267 C28.487931,15.2830817 28.487931,15.2830817 28.487931,15.2830817 L28.487931,15.4245917 L28.487931,15.4953467 L28.3465517,15.5661017 C28.2758621,15.4953467 28.2758621,15.4245917 28.2758621,15.2123267 L28.2758621,15.1415716 C28.2758621,15.0708166 28.3465517,15.0708166 28.4172414,15.0000616 C28.487931,15.0000616 28.6293103,14.9293066 28.7,14.9293066 C28.7706897,14.9293066 28.8413793,14.9293066 28.912069,14.9293066 C28.9827586,14.9293066 29.1948276,15.0000616 29.2655172,15.0708166 L29.0534483,15.2123267 C28.9827586,15.2123267 28.9827586,15.1415716 28.912069,15.1415716 Z M28.9827586,15.3538367 L28.6293103,15.4953467 C28.5586207,15.3538367 28.6293103,15.2830817 28.7,15.3538367 C28.7706897,15.3538367 28.8413793,15.3538367 28.9827586,15.3538367 L28.9827586,15.3538367 Z M28.7706897,16.2736518 C28.912069,16.3444068 28.9827586,16.4859168 29.1241379,16.5566718 C29.1948276,16.6274268 29.3362069,16.6981818 29.4775862,16.6981818 L29.5482759,16.8396918 C29.3362069,16.8396918 29.1948276,16.7689368 29.0534483,16.6981818 C28.912069,16.6274268 28.7706897,16.4859168 28.6293103,16.3444068 L28.7706897,16.2736518 Z M29.4775862,16.4859168 C29.4068966,16.4859168 29.2655172,16.4859168 29.1948276,16.4151618 C29.1241379,16.3444068 29.0534483,16.2736518 28.9827586,16.2028968 L29.6896552,15.7783667 C29.6896552,15.7783667 29.7603448,15.9198767 29.7603448,15.9906317 L29.7603448,16.2028968 C29.6896552,16.1321418 29.6189655,16.1321418 29.5482759,16.2028968 C29.4775862,16.2736518 29.4068966,16.4151618 29.4775862,16.4859168 Z M29.6896552,15.6368567 L29.3362069,15.2830817 L29.4775862,15.2123267 L29.9017241,15.5661017 L29.6896552,15.6368567 Z M30.0431034,15.4953467 C29.9724138,15.4245917 29.9017241,15.3538367 29.9017241,15.2830817 C29.8310345,15.2830817 29.7603448,15.2123267 29.6896552,15.1415716 L30.0431034,14.8585516 C30.1137931,14.8585516 30.1844828,14.8585516 30.2551724,14.9293066 C30.3965517,15.0708166 30.3965517,15.1415716 30.3258621,15.2830817 L30.0431034,15.4953467 Z M29.8310345,13.7264715 L29.7603448,13.3726965 C29.8310345,13.3726965 29.9017241,13.4434515 29.9017241,13.5142065 C29.9017241,13.6557165 29.9017241,13.6557165 29.8310345,13.7264715 Z M30.0431034,14.2217565 C30.0431034,14.2925116 30.0431034,14.4340216 29.9724138,14.4340216 L29.9017241,14.0802465 C29.9724138,14.1510015 29.9724138,14.1510015 30.0431034,14.2217565 Z M25.0241379,16.3444068 C24.9534483,16.3444068 24.8827586,16.3444068 24.812069,16.2736518 C24.7413793,16.2028968 24.7413793,16.0613867 24.812069,16.0613867 L25.0241379,16.3444068 Z M24.5293103,15.6368567 C24.4586207,15.6368567 24.387931,15.6368567 24.387931,15.5661017 C24.3172414,15.4953467 24.3172414,15.4245917 24.387931,15.3538367 L24.5293103,15.6368567 Z M22.1258621,8.63211094 C22.4086207,9.05664099 22.6206897,9.55192604 22.6206897,10.1179661 L22.337931,13.7972265 C22.337931,14.5047766 22.337931,15.2123267 22.4793103,15.8491217 C22.6206897,16.4859168 22.8327586,17.0519569 23.0448276,17.6179969 C23.1862069,17.9010169 23.3275862,18.042527 23.5396552,18.254792 L24.3172414,18.750077 C24.1758621,18.820832 24.0344828,18.820832 23.8931034,18.8915871 C23.7517241,18.8915871 23.6810345,18.8915871 23.5396552,18.820832 C23.0448276,18.608567 22.6206897,18.325547 22.2672414,17.971772 C21.7017241,17.3349769 21.3482759,16.5566718 21.2775862,15.7783667 C21.2775862,15.1415716 21.2068966,14.5755316 21.2068966,14.0094915 C21.2068966,13.5142065 21.2068966,13.0189214 21.2068966,12.4528814 L21.3482759,9.41041602 C21.3482759,9.198151 21.3482759,8.91513097 21.2775862,8.63211094 C21.2068966,8.41984592 21.1362069,8.13682589 21.0655172,7.92456086 C21.4896552,8.06607088 21.8431034,8.2783359 22.1258621,8.63211094 Z M10.6034483,26.2501079 C10.7448276,26.1793529 10.8862069,26.1085978 11.0982759,26.1085978 C11.2396552,26.1085978 11.3810345,26.1085978 11.5224138,26.1085978 L11.5224138,25.9670878 C11.4517241,25.9670878 11.3810345,25.9670878 11.3103448,25.9670878 C11.2396552,25.9670878 11.0982759,25.9670878 11.0275862,26.0378428 C10.462069,26.1793529 9.96724138,26.3208629 9.33103448,26.3916179 C8.76551724,26.4623729 8.27068966,26.5331279 7.70517241,26.5331279 C7.5637931,26.5331279 7.49310345,26.4623729 7.35172414,26.4623729 C7.21034483,26.3916179 7.06896552,26.3208629 6.99827586,26.1793529 C6.92758621,26.0378428 6.99827586,25.8255778 7.13965517,25.6840678 C7.21034483,25.6133128 7.28103448,25.6133128 7.35172414,25.5425578 L11.8758621,23.2076425 C12.1586207,23.0661325 12.3706897,22.9246225 12.6534483,22.8538675 C12.8655172,22.7831125 13.1482759,22.7123575 13.3603448,22.5708475 C13.3603448,22.7123575 13.4310345,22.7831125 13.4310345,22.9246225 C13.5017241,23.0661325 13.5017241,23.1368875 13.5724138,23.2076425 L13.4310345,23.9151926 C12.9362069,24.0567026 12.5827586,24.4812327 12.512069,24.9765177 C12.4413793,25.4718028 12.6534483,25.9670878 13.0775862,26.2501079 L13.0068966,27.169923 L12.8655172,27.382188 C12.512069,27.240678 12.087931,27.099168 11.7344828,26.8869029 C11.3810345,26.6746379 10.9568966,26.4623729 10.6034483,26.2501079 Z M18.1672414,18.9623421 C18.0258621,19.3161171 17.8844828,19.6698921 17.6724138,20.0236672 C17.4603448,19.8821572 17.3189655,19.7406471 17.2482759,19.6698921 C17.1068966,19.4576271 17.0362069,19.3161171 16.9655172,19.1038521 C17.1775862,18.537812 17.3896552,17.971772 17.5310345,17.3349769 C17.6724138,16.6274268 17.8137931,15.9198767 17.8137931,15.2123267 L18.0965517,15.2123267 C18.0258621,15.7783667 18.0258621,16.3444068 18.1672414,16.9104468 C18.1672414,17.1934669 18.3086207,17.4764869 18.3793103,17.7595069 C18.3793103,18.184037 18.3086207,18.537812 18.1672414,18.9623421 Z M18.45,17.971772 L18.9448276,18.750077 L18.7327586,20.5897072 C18.5206897,20.5189522 18.3793103,20.3774422 18.237931,20.2359322 C18.1672414,20.1651772 18.0258621,19.9529122 17.9551724,19.8114022 C18.0965517,19.5283821 18.1672414,19.3161171 18.237931,19.0330971 C18.3793103,18.679322 18.45,18.325547 18.45,17.971772 Z M13.9258621,24.4104777 L13.9965517,24.1982126 C14.2086207,24.4812327 14.35,24.8350077 14.2793103,25.1887827 C14.2086207,25.5425578 13.9965517,25.8255778 13.7137931,26.0378428 L13.7844828,25.8255778 C13.9258621,25.6840678 14.0672414,25.4718028 14.137931,25.1887827 C14.2086207,24.9057627 14.0672414,24.6227427 13.9258621,24.4104777 Z M13.7844828,24.5519877 C13.8551724,24.7642527 13.8551724,24.9057627 13.8551724,25.0472727 C13.8551724,25.1887827 13.7844828,25.3302928 13.6431034,25.4718028 C13.6431034,25.4010478 13.5724138,25.2595378 13.5017241,25.2595378 C13.4310345,25.3302928 13.2896552,25.4010478 13.2896552,25.4718028 L13.2189655,25.1180277 C13.2189655,24.9057627 13.2896552,24.6934977 13.4310345,24.5519877 C13.4310345,24.6227427 13.5017241,24.6934977 13.5724138,24.6934977 C13.6431034,24.6934977 13.7137931,24.6934977 13.7844828,24.5519877 C13.7137931,24.6227427 13.7137931,24.6227427 13.6431034,24.6227427 C13.6431034,24.5519877 13.5724138,24.5519877 13.5724138,24.5519877 L13.9258621,22.6416025 C13.9258621,22.5708475 13.9965517,22.5708475 14.0672414,22.5708475 L14.137931,22.6416025 L13.7844828,24.5519877 Z M13.1482759,28.9387982 L13.0775862,29.2218182 C12.7948276,29.0095532 12.5827586,28.7265331 12.6534483,28.3020031 C12.6534483,27.877473 12.8655172,27.452943 13.2189655,27.240678 L13.2189655,27.523698 C13.0068966,27.735963 12.9362069,27.948228 12.9362069,28.2312481 C12.8655172,28.5142681 13.0068966,28.7265331 13.1482759,28.9387982 Z M13.2896552,25.6840678 L13.2896552,25.9670878 C13.0068966,25.7548228 12.7948276,25.3302928 12.8655172,24.9765177 C12.9362069,24.5519877 13.2189655,24.1982126 13.5724138,24.0567026 L13.5017241,24.3397227 C13.2896552,24.4812327 13.1482759,24.7642527 13.1482759,25.0472727 C13.0775862,25.2595378 13.1482759,25.4718028 13.2896552,25.6840678 Z M13.2896552,28.9387982 L13.3603448,28.8680431 C13.4310345,28.7972881 13.5017241,28.8680431 13.5017241,28.8680431 L13.4310345,31.0614484 C13.3603448,31.0614484 13.2896552,31.0614484 13.2896552,31.0614484 C13.2896552,31.0614484 13.2189655,31.0614484 13.2189655,30.9906934 L13.2896552,28.9387982 Z M13.3603448,27.877473 C13.2896552,27.806718 13.2896552,27.806718 13.2896552,27.735963 L13.4310345,25.6133128 C13.5017241,25.5425578 13.5017241,25.5425578 13.5724138,25.5425578 L13.6431034,25.6133128 L13.5017241,27.806718 C13.5017241,27.877473 13.4310345,27.877473 13.3603448,27.877473 Z M13.9965517,21.7925424 C13.7844828,22.0048074 13.7137931,22.3585824 13.7844828,22.6416025 L13.7137931,22.8538675 C13.5017241,22.5000924 13.5017241,21.9340524 13.7844828,21.6510324 C14.0672414,21.2265023 14.6327586,21.0849923 15.0568966,21.2972573 L14.9155172,21.4387673 C14.562069,21.3680123 14.2086207,21.5095223 13.9965517,21.7925424 Z M10.8862069,19.3868721 C10.8862069,19.4576271 10.8862069,19.5991371 10.8862069,19.6698921 C10.8862069,19.8114022 10.8862069,19.8114022 10.8155172,19.8821572 C10.7448276,19.9529122 10.6741379,19.9529122 10.6034483,19.8821572 C10.5327586,19.8821572 10.5327586,19.8114022 10.5327586,19.7406471 C10.6034483,19.5991371 10.6741379,19.4576271 10.7448276,19.3161171 C10.8155172,19.1746071 10.9568966,18.9623421 11.0982759,18.820832 L13.6431034,14.6462866 C13.8551724,14.5755316 14.0672414,14.5047766 14.2793103,14.5047766 C14.562069,14.3632666 14.7741379,14.2217565 15.0568966,14.0094915 C15.1982759,14.0802465 15.3396552,14.1510015 15.4810345,14.1510015 C15.6224138,14.1510015 15.8344828,14.1510015 15.9758621,14.1510015 C15.7637931,14.5047766 15.4810345,14.9293066 15.2689655,15.2830817 C14.9862069,15.7783667 14.7034483,16.3444068 14.4913793,16.8396918 C14.2086207,17.6179969 13.7844828,18.396302 13.3603448,19.1038521 C12.8655172,19.8821572 12.3,20.6604622 11.6637931,21.2972573 C11.5931034,21.3680123 11.3810345,21.4387673 11.3103448,21.3680123 C11.1689655,21.2972573 11.0982759,21.1557473 11.0982759,21.0142373 C11.0275862,20.8727273 11.0275862,20.8019723 11.0275862,20.6604622 C11.0275862,20.5897072 11.0275862,20.4481972 11.0275862,20.3066872 L11.0275862,19.3868721 L10.8862069,19.3868721 Z M9.89655172,20.3774422 C9.40172414,20.8727273 8.90689655,21.3680123 8.34137931,21.7925424 C8.2,21.8632974 8.05862069,21.8632974 7.98793103,21.7925424 C7.91724138,21.7217874 7.84655172,21.5802773 7.84655172,21.5095223 C7.84655172,21.1557473 7.84655172,20.8019723 7.84655172,20.4481972 C7.84655172,20.1651772 7.91724138,19.8114022 7.98793103,19.5283821 C8.48275862,19.2453621 8.97758621,18.9623421 9.40172414,18.608567 C9.89655172,18.254792 10.3206897,17.8302619 10.6741379,17.3349769 L12.5827586,14.6462866 C12.7241379,14.6462866 12.8655172,14.6462866 13.0775862,14.7877966 C13.2189655,14.7877966 13.4310345,14.7877966 13.5724138,14.7170416 L11.0982759,18.750077 C10.7448276,19.3161171 10.3206897,19.8821572 9.89655172,20.3774422 Z M13.9965517,18.325547 C14.2793103,17.8302619 14.4913793,17.2642219 14.7034483,16.7689368 C14.9155172,16.2736518 15.1982759,15.7076117 15.4810345,15.2123267 C15.6931034,14.8585516 15.9051724,14.5047766 16.187931,14.1510015 L16.6827586,14.4340216 C16.4706897,15.4245917 16.2586207,16.4151618 15.9051724,17.3349769 C15.4810345,18.467057 14.9862069,19.4576271 14.4206897,20.4481972 C14.35,20.5189522 14.2793103,20.5897072 14.137931,20.5897072 C14.0672414,20.5897072 13.9965517,20.5189522 13.9258621,20.4481972 C13.8551724,20.3066872 13.7844828,20.1651772 13.7844828,20.0236672 C13.7137931,19.8821572 13.7137931,19.6698921 13.7137931,19.5283821 C13.7137931,19.6698921 13.5724138,19.8821572 13.4310345,19.8821572 C13.2896552,19.9529122 13.0068966,19.9529122 13.0775862,19.8821572 C13.3603448,19.4576271 13.7137931,18.8915871 13.9965517,18.325547 Z M16.8241379,14.6462866 C16.8948276,14.7877966 17.1068966,14.9293066 17.2482759,15.0000616 L17.6724138,15.1415716 C17.6017241,15.7076117 17.5310345,16.3444068 17.3896552,16.9812018 C17.2482759,17.971772 16.8948276,18.8915871 16.4,19.7406471 C16.3293103,19.8114022 16.3293103,19.8114022 16.2586207,19.8114022 C16.187931,19.8114022 16.1172414,19.7406471 16.1172414,19.7406471 C15.9758621,19.6698921 15.9051724,19.5283821 15.8344828,19.3868721 C15.7637931,19.2453621 15.6931034,19.0330971 15.6931034,18.8915871 C15.6931034,18.820832 15.6931034,18.750077 15.6931034,18.679322 C15.6931034,18.537812 15.6931034,18.467057 15.6931034,18.396302 C15.9051724,17.8302619 16.0465517,17.1934669 16.2586207,16.6274268 C16.4706897,15.9906317 16.6827586,15.3538367 16.8241379,14.6462866 Z M14.2086207,22.2878274 L14.7034483,22.2170724 C14.7034483,22.2878274 14.6327586,22.4293374 14.562069,22.5000924 C14.4913793,22.5708475 14.35,22.6416025 14.2793103,22.6416025 C14.2793103,22.5708475 14.2793103,22.5000924 14.2793103,22.4293374 C14.2086207,22.3585824 14.2086207,22.2878274 14.2086207,22.2878274 Z M14.2086207,22.7831125 C14.4206897,22.7831125 14.6327586,22.6416025 14.7034483,22.5000924 C14.8448276,22.3585824 14.9862069,22.1463174 14.9862069,21.8632974 L15.2689655,21.7925424 C15.2689655,22.0755624 15.1275862,22.4293374 14.9155172,22.6416025 C14.7741379,22.8538675 14.4913793,22.9953775 14.2086207,22.9953775 L14.2086207,22.7831125 Z M14.7741379,21.7925424 C14.7741379,21.7925424 14.7034483,21.7925424 14.7034483,21.7217874 C14.6327586,21.7217874 14.7034483,21.6510324 14.7034483,21.6510324 L16.4706897,21.0142373 C16.5413793,21.0849923 16.5413793,21.0849923 16.5413793,21.1557473 L14.7741379,21.7925424 Z M16.4706897,20.8019723 C16.4,20.8019723 16.3293103,20.8727273 16.3293103,20.8727273 C16.2586207,20.8727273 16.2586207,20.9434823 16.2586207,20.9434823 L16.0465517,20.9434823 C16.0465517,20.8727273 16.1172414,20.8019723 16.187931,20.8019723 C16.2586207,20.7312173 16.2586207,20.6604622 16.3293103,20.6604622 C16.5413793,20.5189522 16.8241379,20.5189522 17.0362069,20.5897072 C17.2482759,20.6604622 17.3896552,20.7312173 17.5310345,20.8727273 L17.3189655,21.0142373 C17.1775862,20.9434823 17.1068966,20.8727273 16.9655172,20.8727273 C16.8241379,20.8019723 16.612069,20.7312173 16.4706897,20.8019723 Z M18.0965517,14.9293066 C17.8844828,14.9293066 17.7431034,14.9293066 17.6724138,14.9293066 C17.3896552,14.8585516 17.1068966,14.7170416 16.9655172,14.5047766 C17.0362069,14.5047766 17.2482759,14.3632666 17.3189655,14.3632666 C17.3896552,14.2925116 17.7431034,14.0802465 17.8137931,14.0094915 L18.3086207,13.5849615 L18.0965517,14.9293066 Z M17.5310345,14.0094915 C17.3189655,14.2217565 17.1775862,14.2217565 16.9655172,14.2217565 C16.6827586,14.2217565 16.4706897,14.2217565 16.2586207,14.0802465 C16.187931,14.0802465 16.187931,14.0802465 16.187931,14.0094915 L16.187931,13.9387365 C16.4706897,13.8679815 16.612069,13.7972265 16.8241379,13.6557165 C17.2482759,13.4434515 17.4603448,13.0896764 17.8137931,12.7359014 C17.9551724,12.5943914 18.0965517,12.4528814 18.237931,12.3113713 C18.3086207,12.2406163 18.45,12.1698613 18.5206897,12.0991063 L18.3086207,13.3019414 L17.5310345,14.0094915 Z M18.45,11.8868413 C18.3793103,11.9575963 18.3086207,11.9575963 18.237931,12.0283513 C18.0965517,12.0991063 17.9551724,12.1698613 17.8844828,12.3113713 C17.5310345,12.8066564 17.1775862,13.2311864 16.6827586,13.5142065 C16.4706897,13.6557165 16.2586207,13.7972265 16.0465517,13.7972265 C15.7637931,13.8679815 15.3396552,13.7972265 15.3396552,13.7972265 L17.6724138,11.3915562 C17.8137931,11.2500462 17.9551724,11.1085362 18.1672414,11.0377812 C18.3086207,10.9670262 18.45,10.8962712 18.5913793,10.8255162 C18.662069,10.9670262 18.662069,11.1792912 18.662069,11.3208012 C18.662069,11.4623112 18.662069,11.6038213 18.662069,11.7453313 C18.5913793,11.8160863 18.5206897,11.8160863 18.45,11.8868413 Z M18.1672414,10.8255162 C17.9551724,10.9670262 17.7431034,11.1085362 17.6017241,11.2500462 L15.1275862,13.7264715 C14.7741379,14.0094915 14.35,14.2217565 13.8551724,14.3632666 C13.4310345,14.4340216 12.9362069,14.5047766 12.4413793,14.4340216 C12.512069,14.3632666 12.6534483,14.2925116 12.7948276,14.2217565 C12.9362069,14.1510015 13.0068966,14.0802465 13.1482759,13.9387365 L14.562069,12.3821263 L16.1172414,10.6132512 C16.4,10.2594761 16.8241379,9.97645609 17.2482759,9.76419106 C17.5310345,9.62268105 17.8844828,9.48117103 18.237931,9.41041602 C18.3086207,9.62268105 18.3793103,9.76419106 18.45,9.97645609 L18.5913793,10.6132512 C18.3793103,10.6840062 18.237931,10.7547612 18.1672414,10.8255162 Z M17.1068966,9.62268105 C16.6827586,9.83494607 16.2586207,10.1179661 15.9051724,10.4009861 L14.35,12.1698613 L12.8655172,13.7972265 C12.3,14.3632666 11.7344828,14.7170416 10.9568966,14.7877966 C10.6034483,14.7877966 10.25,14.7877966 9.96724138,14.7170416 L10.1793103,13.8679815 C10.3206897,13.4434515 10.462069,13.1604314 10.6741379,12.8066564 C10.8862069,12.8066564 11.0982759,12.7359014 11.2396552,12.6651464 C11.4517241,12.5236364 11.6637931,12.3821263 11.8051724,12.2406163 L14.2793103,9.90570108 C14.7034483,9.55192604 15.1982759,9.33966102 15.6931034,9.198151 C16.4706897,8.98588598 17.3189655,8.98588598 18.0965517,9.26890601 C17.7431034,9.33966102 17.3896552,9.48117103 17.1068966,9.62268105 Z M10.8862069,14.9293066 C11.2396552,14.9293066 11.5931034,14.7877966 11.9465517,14.5755316 L12.3,14.6462866 L10.6034483,17.2642219 C10.1793103,17.6887519 9.75517241,18.113282 9.33103448,18.467057 C8.8362069,18.820832 8.34137931,19.1038521 7.84655172,19.3868721 C7.77586207,19.3868721 7.70517241,19.3868721 7.63448276,19.3161171 C7.5637931,19.3161171 7.5637931,19.2453621 7.5637931,19.1746071 C7.70517241,18.8915871 7.77586207,18.679322 7.91724138,18.467057 C8.05862069,18.113282 8.12931034,17.8302619 8.27068966,17.5472419 C8.55344828,17.2642219 8.8362069,16.9812018 9.04827586,16.6274268 C9.40172414,16.0613867 9.68448276,15.4953467 9.82586207,14.8585516 C10.1793103,14.9293066 10.5327586,15.0000616 10.8862069,14.9293066 Z M13.9258621,31.6982435 C13.8551724,32.0520185 13.7137931,32.3350385 13.5017241,32.4765485 C13.3603448,32.4765485 13.2896552,32.4765485 13.2189655,32.4765485 C13.0775862,32.4765485 12.9362069,32.4057935 12.7948276,32.3350385 C12.5827586,32.1227735 12.4413793,31.8397535 12.4413793,31.5567334 C12.4413793,31.1322034 12.5827586,30.7784284 12.9362069,30.5661633 L12.9362069,30.7784284 C12.7241379,30.9906934 12.6534483,31.2737134 12.6534483,31.5567334 C12.7241379,31.8397535 12.7948276,32.0520185 12.9362069,32.1935285 C12.9362069,32.2642835 13.0775862,32.3350385 13.2189655,32.3350385 C13.2189655,32.2642835 13.3603448,32.2642835 13.3603448,32.1935285 C13.5017241,31.9812635 13.6431034,31.7689985 13.6431034,31.5567334 C13.7137931,31.2737134 13.6431034,31.0614484 13.5017241,30.8491834 L13.5724138,30.6369183 C13.8551724,30.9199384 13.9965517,31.3444684 13.9258621,31.6982435 Z M13.5724138,29.2925732 L13.5724138,28.9387982 C13.7137931,28.7265331 13.7844828,28.5142681 13.8551724,28.3727581 C13.9258621,28.0897381 13.7844828,27.877473 13.6431034,27.665208 L13.6431034,27.452943 C13.9258621,27.594453 14.137931,28.0189831 14.137931,28.3727581 C14.137931,28.7265331 13.9258621,29.1510632 13.5724138,29.2925732 Z M18.662069,28.3020031 C18.7327586,28.1604931 18.8034483,28.0897381 18.9448276,28.0189831 L18.8034483,27.877473 C18.662069,27.948228 18.5913793,28.0897381 18.5206897,28.2312481 C18.45,28.3727581 18.45,28.4435131 18.45,28.5142681 L18.5913793,29.0095532 C18.1672414,28.7972881 17.7431034,28.5142681 17.3189655,28.3727581 C16.7534483,28.0897381 16.187931,28.0189831 15.6224138,27.948228 C15.3396552,27.877473 15.0568966,27.877473 14.8448276,27.806718 C14.6327586,27.735963 14.4206897,27.735963 14.2086207,27.665208 C14.137931,27.523698 14.0672414,27.382188 14.0672414,27.169923 C13.9965517,27.099168 13.8551724,27.0284129 13.7844828,26.9576579 L13.8551724,26.0378428 C14.2086207,25.8963328 14.4913793,25.4718028 14.562069,25.0472727 C14.6327586,24.5519877 14.4206897,24.1274576 14.0672414,23.8444376 L14.2086207,23.0661325 C14.4913793,23.0661325 14.8448276,22.9246225 15.0568966,22.7123575 C15.2689655,22.5000924 15.4103448,22.2170724 15.4810345,21.9340524 L15.8344828,22.0048074 C16.2586207,21.7925424 16.6827586,21.5095223 17.1068966,21.2972573 C17.4603448,21.0849923 17.9551724,20.8727273 18.3793103,20.7312173 L18.9448276,21.1557473 L19.0155172,20.5189522 L19.2275862,20.3774422 C19.2982759,20.5189522 19.3689655,20.6604622 19.5103448,20.8019723 C19.5810345,20.9434823 19.7931034,21.0849923 19.9344828,21.1557473 C20.0051724,20.9434823 20.0758621,20.8019723 20.0758621,20.5897072 C20.0758621,20.3774422 20.0051724,20.2359322 20.0051724,20.0944222 L21.5603448,21.5095223 C21.7017241,21.9340524 21.9844828,22.3585824 22.337931,22.6416025 C22.6913793,22.9246225 23.1155172,23.1368875 23.6103448,23.2076425 L23.7517241,23.2783975 C23.8224138,23.2783975 23.8931034,23.3491525 23.9637931,23.3491525 L23.9637931,23.2076425 C23.9637931,23.1368875 23.8931034,23.1368875 23.8224138,23.0661325 C23.8224138,22.9953775 23.7517241,22.9953775 23.6810345,22.9953775 C23.3275862,22.9246225 22.9034483,22.7831125 22.6206897,22.5708475 C22.2672414,22.2878274 21.9844828,22.0048074 21.7724138,21.5802773 L22.6913793,22.2170724 L22.6913793,22.0755624 C22.337931,21.7925424 21.9137931,21.4387673 21.5603448,21.1557473 C21.2068966,20.8727273 20.8534483,20.5897072 20.5,20.2359322 C20.1465517,19.8821572 19.7931034,19.5283821 19.5103448,19.1746071 C19.2275862,18.820832 18.9448276,18.467057 18.7327586,18.042527 C18.45,17.4764869 18.3086207,16.9104468 18.237931,16.2736518 C18.1672414,15.7076117 18.1672414,15.1415716 18.3086207,14.5755316 C18.3793103,13.4434515 18.8034483,11.8868413 18.8034483,11.6745763 C18.8741379,11.3208012 18.8741379,10.8962712 18.8034483,10.4717411 C18.7327586,10.0472111 18.5913793,9.62268105 18.3793103,9.26890601 C18.5206897,9.33966102 18.5913793,9.33966102 18.7327586,9.41041602 C18.8741379,9.48117103 18.9448276,9.55192604 19.0862069,9.62268105 L19.0155172,9.41041602 C18.5913793,9.12739599 18.0258621,8.98588598 17.5310345,8.91513097 C16.8948276,8.84437596 16.2586207,8.91513097 15.6931034,8.98588598 C14.7741379,9.12739599 13.9965517,9.83494607 13.3603448,10.4717411 C12.8655172,10.9670262 12.5827586,11.3915562 12.087931,11.7453313 C11.8051724,11.9575963 11.4517241,12.3821263 11.0982759,12.5236364 C10.7448276,12.6651464 10.462069,12.8066564 10.037931,12.8066564 L9.96724138,12.9481664 C10.037931,12.9481664 10.1086207,12.9481664 10.1793103,12.9481664 C10.25,12.8774114 10.3206897,12.8774114 10.462069,12.8774114 C10.3206897,13.1604314 10.25,13.3726965 10.1086207,13.6557165 C9.96724138,14.0094915 9.82586207,14.2925116 9.75517241,14.6462866 C9.6137931,15.2830817 9.40172414,15.8491217 9.04827586,16.4151618 C8.69482759,16.9812018 8.27068966,17.4764869 7.77586207,17.8302619 C7.63448276,17.9010169 7.49310345,17.971772 7.35172414,18.042527 C7.21034483,18.042527 6.99827586,18.042527 6.85689655,18.042527 L6.85689655,18.254792 C7.06896552,18.325547 7.21034483,18.325547 7.42241379,18.254792 C7.63448276,18.254792 7.91724138,18.113282 8.05862069,17.9010169 C7.77586207,18.750077 7.28103448,19.4576271 6.64482759,20.0944222 C6.00862069,20.6604622 5.37241379,21.1557473 4.59482759,21.4387673 C4.52413793,21.4387673 4.45344828,21.4387673 4.38275862,21.3680123 C4.38275862,21.2972573 4.38275862,21.2265023 4.38275862,21.1557473 C4.52413793,20.7312173 4.7362069,20.3066872 4.87758621,19.8821572 C4.94827586,19.5991371 5.08965517,19.2453621 5.16034483,18.8915871 C5.65517241,17.4764869 6.22068966,16.1321418 6.85689655,14.7877966 C7.49310345,13.5849615 8.12931034,12.4528814 8.90689655,11.3915562 C9.40172414,10.5424961 9.96724138,9.76419106 10.6034483,9.05664099 C11.5224138,8.06607088 12.5827586,7.14625578 13.7844828,6.36795069 C14.7741379,5.80191063 15.9758621,5.5188906 17.1068966,5.58964561 C17.8137931,5.58964561 18.5206897,5.73115562 19.1568966,6.01417565 C19.7224138,6.29719569 20.2172414,6.72172573 20.5706897,7.21701079 C21.0655172,7.92456086 21.2775862,8.70286595 21.2775862,9.55192604 L21.1362069,12.4528814 C21.1362069,13.0189214 21.1362069,13.5142065 21.1362069,14.0802465 C21.1362069,14.6462866 21.1362069,15.2123267 21.2068966,15.7783667 C21.2775862,16.6274268 21.5603448,17.3349769 22.1258621,17.971772 C22.762069,18.679322 23.6810345,19.1038521 24.6,19.1746071 C24.812069,19.1746071 25.0948276,19.2453621 25.3068966,19.2453621 C25.5189655,19.3161171 25.7310345,19.3161171 25.9431034,19.3868721 C26.0844828,19.5283821 26.2258621,19.5991371 26.3672414,19.6698921 C26.437931,19.7406471 26.5086207,19.7406471 26.5793103,19.8114022 C26.5793103,19.8114022 26.65,19.8821572 26.7206897,19.8821572 C26.7913793,19.8821572 26.7913793,19.8821572 26.862069,19.8821572 L26.9327586,19.7406471 C26.862069,19.7406471 26.862069,19.7406471 26.7913793,19.7406471 C26.7206897,19.7406471 26.65,19.6698921 26.65,19.6698921 C26.5793103,19.5283821 26.437931,19.4576271 26.3672414,19.3868721 C26.2965517,19.3161171 26.1551724,19.2453621 26.0137931,19.1746071 C25.8017241,19.1038521 25.5189655,19.0330971 25.3068966,18.9623421 C25.0948276,18.8915871 24.812069,18.8915871 24.5293103,18.8915871 C25.0241379,18.820832 25.4482759,18.537812 25.7310345,18.184037 C25.9431034,17.9010169 26.0844828,17.5472419 26.1551724,17.1227119 C26.7206897,16.9812018 27.2862069,16.8396918 27.8517241,16.6274268 C28.0637931,16.5566718 28.2758621,16.4151618 28.487931,16.3444068 C28.6293103,16.4859168 28.7706897,16.6274268 28.9827586,16.7689368 C29.1241379,16.9104468 29.3362069,16.9812018 29.5482759,16.9812018 L29.6189655,17.3349769 L29.5482759,16.3444068 C29.5482759,16.3444068 29.5482759,16.2736518 29.6189655,16.2736518 C29.6896552,16.2736518 29.7603448,16.2736518 29.7603448,16.3444068 L29.9017241,18.113282 C29.8310345,18.184037 29.8310345,18.184037 29.6896552,18.184037 L29.6189655,17.6887519 C29.3362069,17.9010169 29.1241379,18.254792 29.0534483,18.608567 C29.1241379,18.325547 29.2655172,18.042527 29.4775862,17.9010169 L29.4775862,18.184037 C29.3362069,18.396302 29.2655172,18.679322 29.2655172,18.8915871 C29.2655172,19.1746071 29.3362069,19.3868721 29.4775862,19.5991371 L29.4775862,19.8114022 C29.1948276,19.5991371 29.0534483,19.2453621 28.9827586,18.820832 C28.9827586,18.820832 28.9827586,18.820832 28.9827586,18.8915871 C28.9827586,19.3161171 29.1241379,19.7406471 29.5482759,20.0236672 L29.5482759,20.7312173 C29.1241379,20.9434823 28.8413793,21.3680123 28.8413793,21.8632974 C28.8413793,22.3585824 29.0534483,22.7831125 29.4775862,23.0661325 L29.4775862,23.8444376 C29.1948276,23.9859476 28.9827586,24.1982126 28.8413793,24.4812327 C28.7,24.8350077 28.7,25.1887827 28.7706897,25.5425578 C28.6293103,25.6133128 28.4172414,25.7548228 28.2758621,25.8255778 C27.9931034,25.9670878 27.7103448,26.0378428 27.3568966,26.1085978 C26.2258621,26.1793529 25.0948276,26.3916179 24.0344828,26.8161479 C23.1155172,27.240678 22.1965517,27.665208 21.3482759,28.3020031 C21.1362069,28.5142681 20.9241379,28.7265331 20.7827586,28.9387982 C20.6413793,29.1510632 20.5,29.2925732 20.4293103,29.5048382 C20.3586207,29.5755932 20.3586207,29.6463482 20.3586207,29.7171032 C20.287931,29.7878582 20.3586207,29.8586133 20.3586207,29.9293683 C20.3586207,30.3538983 20.0051724,30.7076733 19.5810345,30.7076733 C19.0862069,30.7076733 18.8034483,30.2831433 18.8741379,29.7878582 C18.8741379,29.6463482 18.8034483,29.5048382 18.8034483,29.3633282 C18.8034483,29.2218182 18.7327586,29.0803082 18.662069,28.9387982 C18.5913793,28.7972881 18.5913793,28.5142681 18.662069,28.3020031 Z M19.1568966,19.1038521 C19.2275862,19.2453621 19.3689655,19.3868721 19.4396552,19.4576271 L19.7931034,19.8114022 C19.8637931,20.0236672 19.8637931,20.2359322 19.9344828,20.4481972 C19.9344828,20.5189522 19.9344828,20.6604622 19.8637931,20.8019723 C19.5810345,20.6604622 19.3689655,20.3774422 19.2275862,20.0944222 C19.0862069,19.8114022 19.0862069,19.4576271 19.1568966,19.1038521 Z M30.2551724,18.750077 C30.2551724,18.9623421 30.1844828,19.1746071 30.1137931,19.3161171 C30.0431034,19.2453621 29.9724138,19.1746071 29.9017241,19.1746071 C29.8310345,19.1746071 29.7603448,19.2453621 29.6896552,19.3161171 C29.5482759,19.2453621 29.4775862,19.0330971 29.5482759,18.820832 C29.5482759,18.679322 29.6189655,18.537812 29.6896552,18.396302 C29.7603448,18.467057 29.8310345,18.467057 29.9017241,18.467057 C30.0431034,18.467057 30.1137931,18.396302 30.1137931,18.254792 C30.1844828,18.396302 30.2551724,18.608567 30.2551724,18.750077 Z M30.1137931,17.7595069 C30.3965517,18.042527 30.6086207,18.325547 30.6086207,18.750077 C30.6086207,19.1746071 30.4672414,19.5283821 30.1137931,19.8114022 L30.1844828,19.5283821 C30.3258621,19.3868721 30.4672414,19.1038521 30.4672414,18.820832 C30.4672414,18.537812 30.3965517,18.184037 30.1844828,17.971772 L30.1137931,17.7595069 Z M29.4068966,22.1463174 C29.4068966,22.0048074 29.4775862,21.8632974 29.5482759,21.7217874 C29.5482759,21.7925424 29.6896552,21.8632974 29.7603448,21.8632974 C29.9017241,21.8632974 29.9724138,21.7925424 29.9724138,21.6510324 C30.1137931,21.7925424 30.1137931,22.0048074 30.1137931,22.1463174 C30.0431034,22.2878274 30.0431034,22.4293374 29.9724138,22.5708475 C29.9017241,22.5000924 29.8310345,22.4293374 29.7603448,22.4293374 C29.6896552,22.4293374 29.6189655,22.4293374 29.5482759,22.5000924 C29.4775862,22.3585824 29.4068966,22.1463174 29.4068966,22.1463174 Z M29.4775862,22.6416025 L29.4775862,22.9953775 C29.1948276,22.7831125 28.9827586,22.4293374 28.9827586,21.9340524 C28.912069,21.5802773 29.1948276,21.2265023 29.4775862,21.0142373 L29.4775862,21.2972573 C29.3362069,21.5095223 29.2655172,21.7217874 29.2655172,21.9340524 C29.2655172,22.2170724 29.3362069,22.4293374 29.4775862,22.6416025 Z M29.6896552,21.4387673 L29.7603448,19.3868721 C29.7603448,19.3161171 29.7603448,19.3161171 29.8310345,19.3161171 L29.9017241,19.3868721 L29.8310345,21.4387673 L29.6896552,21.4387673 Z M30.0431034,22.7831125 C30.1844828,22.5708475 30.2551724,22.2878274 30.3258621,22.0755624 C30.3258621,21.7925424 30.2551724,21.5095223 30.0431034,21.2972573 L30.0431034,21.0142373 C30.3965517,21.2972573 30.537931,21.7217874 30.537931,22.1463174 C30.537931,22.5000924 30.3258621,22.8538675 30.0431034,23.0661325 L30.0431034,22.7831125 Z M29.1948276,25.8963328 L29.0534483,26.0378428 C28.8413793,25.7548228 28.7706897,25.3302928 28.8413793,24.9765177 C28.912069,24.6227427 29.1948276,24.3397227 29.4775862,24.1274576 L29.4775862,24.4812327 C29.3362069,24.6227427 29.1948276,24.8350077 29.1241379,25.0472727 C29.0534483,25.3302928 29.0534483,25.6133128 29.1948276,25.8963328 Z M26.3672414,29.6463482 L28.2051724,28.8680431 C28.2051724,28.8680431 28.2758621,28.8680431 28.2758621,28.9387982 L28.2758621,29.0095532 L26.3672414,29.7878582 C26.3672414,29.7878582 26.2965517,29.7878582 26.3672414,29.6463482 C26.2965517,29.7171032 26.2965517,29.6463482 26.3672414,29.6463482 Z M23.3982759,28.2312481 C23.3982759,28.1604931 23.3982759,28.1604931 23.4689655,28.1604931 L23.5396552,28.1604931 L25.3068966,29.2218182 C25.3068966,29.2218182 25.3775862,29.2925732 25.2362069,29.3633282 L23.3982759,28.2312481 Z M23.6810345,28.6557781 C23.4689655,28.6557781 23.2568966,28.6557781 23.0448276,28.5850231 C22.8327586,28.5142681 22.6913793,28.3727581 22.55,28.3020031 L22.6206897,28.0189831 C22.6913793,28.1604931 22.8327586,28.3020031 23.0448276,28.3727581 C23.2568966,28.4435131 23.3982759,28.5142681 23.6103448,28.5142681 L23.6810345,28.6557781 Z M23.5396552,27.382188 L23.8224138,27.240678 C23.8931034,27.382188 23.9637931,27.523698 24.0344828,27.665208 C24.0344828,27.806718 24.1051724,28.0189831 24.1051724,28.1604931 L23.8931034,28.1604931 C23.8931034,28.0189831 23.8224138,27.877473 23.7517241,27.735963 C23.6810345,27.594453 23.6103448,27.452943 23.5396552,27.382188 Z M25.3068966,29.0095532 L25.2362069,28.8680431 C25.5189655,28.7972881 25.8017241,28.7972881 26.0137931,28.8680431 C26.2258621,28.9387982 26.65,29.3633282 26.65,29.3633282 L26.5086207,29.3633282 C26.3672414,29.2218182 26.2258621,29.1510632 26.0844828,29.0803082 C25.8017241,29.0095532 25.5896552,29.0095532 25.3068966,29.0095532 Z M28.2051724,28.0897381 C28.0637931,28.2312481 27.9224138,28.5142681 27.9224138,28.7972881 L27.7810345,28.8680431 C27.7810345,28.4435131 27.8517241,28.0897381 28.0637931,27.806718 C28.2051724,27.665208 28.4172414,27.523698 28.6293103,27.452943 L28.7,27.665208 C28.487931,27.806718 28.3465517,27.948228 28.2051724,28.0897381 Z M22.4086207,28.7972881 C22.4086207,29.0803082 22.337931,29.2925732 22.1965517,29.5048382 L21.5603448,29.5048382 C21.4189655,29.4340832 21.3482759,29.2925732 21.2775862,29.1510632 C21.2068966,29.0095532 21.2068966,28.7972881 21.2775862,28.5850231 L22.4793103,27.806718 C22.4793103,27.877473 22.4793103,27.948228 22.4086207,28.0189831 C22.337931,28.0897381 22.337931,28.1604931 22.2672414,28.1604931 C22.337931,28.3727581 22.4086207,28.5850231 22.4086207,28.7972881 Z M21.7017241,34.8114638 C21.4896552,34.8822188 21.2775862,35.0237288 21.1362069,35.1652388 C20.9948276,35.0237288 20.9241379,34.9529738 20.7827586,34.8822188 C20.6413793,34.8114638 20.4293103,34.7407088 20.287931,34.6699538 L18.8034483,34.2454237 C18.8741379,34.1746687 18.8741379,34.1039137 18.9448276,34.0331587 C19.0155172,33.9624037 19.0155172,33.8916487 19.0155172,33.8208937 L19.2275862,30.9906934 L19.7931034,30.9906934 L19.7224138,32.9010786 C19.7931034,33.1840986 19.8637931,33.4671186 20.0758621,33.6793837 C20.287931,33.8916487 20.5706897,34.0331587 20.8534483,34.0331587 L20.8534483,33.9624037 C20.7827586,33.9624037 20.6413793,33.9624037 20.5706897,33.8916487 C20.4293103,33.8208937 20.3586207,33.7501387 20.287931,33.6793837 C20.6413793,33.7501387 20.9948276,33.7501387 21.3482759,33.8208937 C21.6310345,33.8916487 21.9137931,33.9624037 22.1965517,33.9624037 C22.2672414,34.0331587 22.2672414,34.1039137 22.337931,34.1746687 C22.4793103,34.3161787 22.55,34.4576888 22.6913793,34.5284438 C22.337931,34.5284438 21.9844828,34.6699538 21.7017241,34.8114638 Z M24.1051724,33.1133436 C23.9637931,33.1840986 23.8224138,33.2548536 23.6810345,33.3256086 C23.6103448,33.2548536 23.5396552,33.2548536 23.3982759,33.1840986 C23.2568966,33.1840986 23.1862069,33.1133436 23.0448276,33.1133436 L20.9241379,32.7595686 C20.9948276,32.6888136 21.0655172,32.6180586 21.1362069,32.5473035 C21.2068966,32.4765485 21.2775862,32.4057935 21.2775862,32.2642835 L21.4896552,29.7171032 L21.9844828,29.8586133 L21.9137931,31.3444684 C21.9137931,31.7689985 22.1258621,32.1227735 22.4086207,32.3350385 C22.55,32.4057935 22.762069,32.5473035 22.9741379,32.5473035 L22.9741379,32.4057935 C22.9034483,32.3350385 22.762069,32.3350385 22.6913793,32.2642835 C22.55,32.1935285 22.4793103,32.1227735 22.4086207,32.0520185 C22.6913793,32.0520185 22.9034483,32.0520185 23.1862069,32.0520185 C23.3275862,32.0520185 23.5396552,32.0520185 23.6810345,32.0520185 C23.7517241,32.1935285 23.8931034,32.3350385 24.0344828,32.4765485 C24.2465517,32.6888136 24.4586207,32.8303236 24.6706897,32.9010786 C24.4586207,32.9718336 24.3172414,33.0425886 24.1051724,33.1133436 Z M25.6603448,30.2831433 C25.2362069,30.1416333 24.9534483,29.7878582 24.812069,29.3633282 L25.0948276,29.3633282 C25.2362069,29.6463482 25.4482759,29.8586133 25.7310345,30.0001233 C26.0844828,30.1416333 26.437931,30.1416333 26.7913793,29.9293683 L26.9327586,30.0001233 C26.5793103,30.3538983 26.0844828,30.4246533 25.6603448,30.2831433 Z M29.1241379,29.0095532 C28.8413793,29.2218182 28.5586207,29.3633282 28.2051724,29.3633282 L28.2758621,29.0803082 C28.5586207,29.0803082 28.7706897,28.9387982 28.912069,28.7265331 C29.1948276,28.4435131 29.3362069,28.0189831 29.1948276,27.594453 L29.3362069,27.523698 C29.6189655,28.0189831 29.4775862,28.6557781 29.1241379,29.0095532 Z M28.912069,28.0897381 L28.8413793,28.0897381 C28.7706897,28.0189831 28.7706897,28.0189831 28.7706897,27.948228 L29.3362069,25.7548228 C29.4068966,25.7548228 29.4775862,25.7548228 29.4775862,25.8255778 L28.912069,28.0897381 Z M29.2655172,25.1180277 L29.4068966,24.6934977 L29.5482759,24.8350077 L29.2655172,25.1180277 Z M29.6189655,22.6416025 C29.6189655,22.6416025 29.6896552,22.5708475 29.7603448,22.5708475 L29.8310345,22.6416025 L29.7603448,24.6934977 C29.6896552,24.7642527 29.6189655,24.7642527 29.6189655,24.7642527 C29.5482759,24.6934977 29.5482759,24.6934977 29.5482759,24.6227427 L29.6189655,22.6416025 Z M30.3258621,25.2595378 C30.2551724,25.6133128 29.9724138,25.9670878 29.6896552,26.1085978 L29.6189655,25.8963328 C29.8310345,25.6840678 30.0431034,25.4010478 30.0431034,25.1180277 C30.1137931,24.9057627 30.1137931,24.6227427 29.9724138,24.3397227 L30.0431034,24.1982126 C30.3258621,24.4812327 30.3965517,24.9057627 30.3258621,25.2595378 Z M30.0431034,24.0567026 L29.9017241,24.0567026 L29.9724138,23.2783975 C30.3965517,23.0661325 30.6793103,22.6416025 30.6793103,22.1463174 C30.6793103,21.5802773 30.4672414,21.0849923 30.0431034,20.8019723 L30.0431034,20.0944222 C30.4672414,19.8114022 30.6793103,19.3161171 30.6793103,18.820832 C30.6793103,18.254792 30.3965517,17.8302619 29.9724138,17.5472419 L29.9724138,17.0519569 L30.2551724,16.7689368 L30.537931,17.2642219 C31.1034483,18.325547 31.3155172,19.5991371 31.2448276,20.8019723 C31.1034483,22.0048074 30.75,23.0661325 30.0431034,24.0567026 Z M32.5172414,14.3632666 C32.4465517,14.3632666 32.3051724,14.2925116 32.3051724,14.2217565 C32.0931034,13.8679815 31.8810345,13.4434515 31.6689655,13.0896764 C31.3862069,12.5943914 31.0327586,12.0283513 30.6793103,11.5330663 L31.5982759,10.9670262 C31.5982759,10.9670262 31.6689655,10.9670262 31.7396552,10.9670262 L31.8103448,11.0377812 C31.8810345,11.1085362 31.9517241,11.2500462 32.0224138,11.3208012 C32.0224138,11.4623112 32.0931034,11.6038213 32.0931034,11.7453313 C32.1637931,12.0991063 32.1637931,12.3821263 32.2344828,12.7359014 C32.3051724,13.2311864 32.4465517,13.6557165 32.587931,14.0802465 C32.6586207,14.2217565 32.587931,14.3632666 32.5172414,14.3632666 Z" id="Shape"></path>
                    <path d="M28.5586207,14.4340216 C28.7,14.2925116 28.7,14.0802465 28.487931,14.0094915 L28.487931,13.8679815 C28.4172414,13.9387365 28.4172414,13.9387365 28.4172414,14.0094915 C28.5586207,14.0802465 28.6293103,14.2925116 28.5586207,14.4340216 Z" id="Path"></path>
                    <path d="M26.0844828,14.7877966 C26.0844828,14.6462866 26.0844828,14.5047766 26.0844828,14.4340216 C26.1551724,14.2217565 26.3672414,14.1510015 26.5086207,14.1510015 L26.5086207,14.0094915 L26.2965517,14.0094915 C26.2965517,14.0094915 26.2258621,14.0094915 26.2258621,13.9387365 C26.2258621,13.9387365 26.2258621,13.9387365 26.2258621,13.9387365 C26.1551724,14.0094915 26.0844828,14.1510015 26.0137931,14.2217565 C25.9431034,14.4340216 25.9431034,14.6462866 26.0844828,14.7877966 Z" id="Path"></path>
                    <path d="M31.0327586,9.69343606 C31.0327586,9.76419106 31.0327586,9.76419106 31.0327586,9.83494607 C31.2448276,9.97645609 31.4568966,10.0472111 31.6689655,10.1179661 C31.8103448,10.1887211 32.0224138,10.2594761 32.2344828,10.2594761 C32.2344828,10.1887211 32.2344828,10.1887211 32.2344828,10.1179661 C32.0224138,10.0472111 31.8810345,9.97645609 31.6689655,9.97645609 C31.3862069,9.90570108 31.2448276,9.76419106 31.0327586,9.69343606 Z" id="Path"></path>
                    <path d="M28.3465517,14.0094915 C28.487931,13.9387365 28.1344828,13.6557165 27.9931034,13.5849615 C27.8517241,13.5142065 27.6396552,13.5142065 27.4982759,13.5142065 C27.4982759,13.4434515 27.4982759,13.3726965 27.4275862,13.3019414 C27.3568966,13.2311864 27.2862069,13.0896764 27.1448276,13.0896764 C27.0741379,13.0896764 26.9327586,13.0896764 26.862069,13.0189214 C26.7913793,12.9481664 26.65,12.8774114 26.5793103,12.8066564 C26.5793103,12.9481664 26.5793103,13.0896764 26.5086207,13.2311864 C26.437931,13.3726965 26.3672414,13.5142065 26.2258621,13.5849615 C26.2258621,13.6557165 26.2258621,13.7264715 26.2258621,13.7264715 C26.2258621,13.7972265 26.2965517,13.8679815 26.2965517,13.8679815 C26.3672414,13.7972265 26.437931,13.7264715 26.5086207,13.6557165 C26.5793103,13.5849615 26.5793103,13.4434515 26.5793103,13.3726965 C26.65,13.4434515 26.7206897,13.5142065 26.862069,13.5142065 L27.0034483,13.5142065 C27.0034483,13.5142065 27.0741379,13.5142065 27.0741379,13.5849615 C27.0741379,13.5849615 27.0741379,13.5849615 27.0741379,13.6557165 C27.0741379,13.6557165 27.0741379,13.7264715 27.0741379,13.7972265 L26.9327586,13.9387365 L27.0034483,14.0094915 C27.1448276,13.9387365 27.2862069,13.9387365 27.4982759,13.9387365 C27.6396552,13.9387365 27.7810345,14.0802465 27.8517241,14.1510015 C27.5689655,14.4340216 27.8517241,14.9293066 28.2758621,14.7877966 C28.487931,14.7170416 28.5586207,14.5755316 28.5586207,14.4340216 C28.487931,14.5047766 28.487931,14.5047766 28.4172414,14.5047766 C28.2051724,14.5047766 28.0637931,14.0802465 28.3465517,14.0094915 Z" id="Path"></path>
                </g>
            </g>
        </g>
    </g>
</svg>