<?xml version="1.0" encoding="UTF-8"?>
<svg enable-background="new 0 0 115 117" version="1.1" viewBox="0 0 115 117" xml:space="preserve" xmlns="http://www.w3.org/2000/svg" xmlns:xlink="http://www.w3.org/1999/xlink">
<style type="text/css">
	.st0{fill:#FFFFFF;}
	.st1{clip-path:url(#a);}
	.st2{fill-rule:evenodd;clip-rule:evenodd;fill:#FFFFFF;}
	.st3{fill:rgb(52, 62, 68);}
</style>
<circle class="st0" cx="57.5" cy="58.3" r="35.6"/>
	<defs>
		<rect id="b" width="115" height="116.6"/>
	</defs>
	<clipPath id="a">
		<use xlink:href="#b"/>
	</clipPath>
	<g class="st1">
		<path class="st2" d="m102 50.8l0.7 7.3 2.3-0.2-0.4-4.4 2.6-0.2 0.3 2.7 2.5-0.2-0.3-2.7 2.6-0.3 0.4 4.4 2.4-0.2-0.7-7.4-12.4 1.2zm5.3-9.2l0.4 1.2c0.3 0.6 1.1 0.8 1.7 0.6s1-0.8 0.9-1.5l-0.3-1.1-2.7 0.8zm-7.9-0.5l0.9 3.1 4.9-1.6 0.2 0.8-4.4 2.9 0.9 3 4.8-3.4c0.9 0.8 2.2 1 3.4 0.6 1.8-0.5 2.9-2.3 2.5-4.2l-1.5-5.1-11.7 3.9zm-2-4.8l1.3 2.8 11-5.4-1.5-2.9-10.8 5.5zm-6.2-8.7l1.8 2.4 3.9-3 1.4 1.7-4 3.2 1.9 2.4 9.5-7.8-1.7-2.5-3.8 3-1.4-1.7 3.7-3-1.7-2.5-9.6 7.8zm-4.8-9.2c-0.4 0.6-0.6 1.4-0.6 2.1 0 0.8 0.1 1.7 0.5 2.5 0.8 1.7 2.7 2.5 4.5 2 1.9-0.5 3.1-2.5 2.8-4.4l-0.9-3.4c-0.1-0.3 0-0.7 0.3-1 0.3-0.2 0.6-0.3 0.9-0.2 0.5 0.2 0.8 0.7 0.9 1.2s0 0.9-0.3 1.2l2.1 0.9c0.4-0.8 0.5-1.8 0.3-2.7s-0.7-1.7-1.3-2.2c-1.1-0.9-2.5-1.1-3.8-0.6-1.4 0.6-2.3 2.1-2.1 3.6l0.9 4c0 0.5-0.3 0.9-0.8 1.1-0.6 0.2-1.3-0.1-1.5-0.7-0.1-0.4-0.2-0.8-0.2-1.2 0-0.5 0.1-0.9 0.3-1.4l-2-0.8zm-13.2-3.5l2.5 1.1 3.3-6.3-1.7 7.3 1.4 0.7 4.9-5-3.1 5.9 2.4 1.3 5.9-10.8-3.7-2-3.6 3.9 1.3-5.3-3.6-2.2-6 11.4zm-5.2-6l1.7 0.4v-4.2l-1.7 3.8zm-4.3 3.8l2.4 0.5 0.9-2.2 2.8 0.6v2.4l2.7 0.6v-12.8l-3.5-0.7-5.3 11.6zm-10-0.2h3l0.2-4.6h2.1l-0.2 4.7h3l0.4-12.3h-3.1l-0.2 5h-2l0.2-5-3-0.3-0.4 12.5zm-3.3 0.6l1.2-0.2-1.3-6.1-3.8 0.9 0.4 2.2 1.5-0.2v0.5 0.6c-0.2 0.5-0.6 0.8-1.1 0.8-0.5 0.1-1.1-0.2-1.3-0.6-0.4-0.9-0.7-1.8-0.9-2.7-0.2-1.2-0.3-2.4-0.3-3.6 0-0.4 0.3-0.8 0.8-0.9 0.4-0.1 0.8 0.1 1 0.4s0.4 0.6 0.6 1c0.1 0.2 0.2 0.4 0.3 0.7l2.5-0.9c-0.1-0.4-0.3-0.8-0.5-1.2s-0.5-0.8-0.8-1.2c-1-1.2-2.4-1.6-3.7-1.3-1.2 0.3-2.2 1.2-2.6 2.3-0.5 1.5-0.7 3.1-0.5 4.7s0.9 3.2 1.9 4.5c0.8 1 2.2 1.4 3.5 1.2 1-0.2 1.9-0.8 2.4-1.7l0.7 0.8zm-16.5 6l2.3-1.1-2.8-5.9 6 4.3 2-0.9-5.4-11.3-2.3 1.2 2.5 5.2-5.3-3.8-2.4 1.1 5.4 11.2zm-21.4 10.7l1.3-2.4c-0.4-0.2-0.8-0.4-1.2-0.5-0.5-0.2-1-0.3-1.5-0.4-1.4 0-2.7 0.8-3.4 2-0.6 1.1-0.6 2.4 0 3.5 0.7 1.4 1.9 2.6 3.2 3.6 1.3 0.9 2.8 1.4 4.4 1.6 1.4 0.1 2.8-0.5 3.6-1.7 1-1.4 1.1-3.2 0.1-4.6-0.3-0.3-0.5-0.6-0.8-0.8-0.3-0.3-0.6-0.5-0.9-0.8l-1.5 2 0.8 0.5c0.2 0.2 0.5 0.5 0.6 0.7 0.3 0.5 0.3 1.1 0 1.5-0.3 0.5-0.9 0.7-1.5 0.5-1.1-0.3-2-0.8-3-1.3-1.1-0.6-2-1.4-2.8-2.2-0.3-0.3-0.3-0.8 0-1.2 0.2-0.3 0.6-0.4 0.9-0.3s0.6 0.2 0.9 0.3c0.3-0.3 0.5-0.1 0.8 0zm-10.8 14.3l8.8 3.3c0.5 0.1 1 0.1 1.5 0 0.3 0 0.6-0.2 0.9-0.3 0.9-0.5 1.6-1.1 2-2 0.5-1.1 0.5-2.3 0.1-3.5-0.1-0.3-0.2-0.5-0.4-0.8-0.3-0.5-0.8-0.9-1.4-1.2l-8.2-3.6-1.4 2.9 8.7 3.3c0.5 0.3 0.6 0.9 0.4 1.5-0.2 0.5-0.7 0.9-1.3 0.8l-8.6-3.2-1.1 2.8zm27.5-22l2.6-1.7-6.9-10.2-2.7 1.8 7 10.1zm-7.7 7.9l2-2.1-2.2-2.3-0.5-2 4.9 2.3 2.1-2.2-7.8-3.8-1.3-4.5-1.7 1.8 1.5 5.4-3.6-3.5-2 2 8.6 8.9zm-14.4 24.6l2.8 0.3 0.2-1.5c-0.2-0.6-0.6-1-1.2-1.1-0.7-0.2-1.4 0.3-1.6 0.9l-0.2 1.4zm-4.8-0.6l2.5 0.3 0.1-1.3c0-0.6-0.5-1.1-1.2-1.2-0.6 0-1.2 0.3-1.4 1v1.2zm-2.3 2.8l12.1 1.3 0.6-5.8c0-1.6-1.1-2.9-2.6-3.1-1.6-0.3-3.1 0.5-3.7 2-0.3-1.4-1.6-2.5-3-2.4-1.5 0.1-2.7 1.1-2.8 2.6l-0.6 5.4zm7.8 22.3l-0.5-2.5c-0.3 0-0.6 0.1-0.8 0.1h-0.7c-0.6 0-1.1-0.4-1.2-1-0.1-0.5 0.2-1.1 0.6-1.4 0.9-0.5 1.9-0.8 2.9-1.2 1-0.3 2-0.6 3.1-0.8 0.5 0 1 0.3 1.2 0.8 0.1 0.4 0 0.8-0.3 1.1-0.2 0.2-0.5 0.5-0.8 0.6-0.2 0.2-0.5 0.3-0.6 0.5l0.9 2.6c0.4-0.2 0.8-0.5 1.2-0.7 0.4-0.3 0.8-0.6 1.2-1 0.9-1.1 1.2-2.6 0.7-4-0.5-1.2-1.6-2.2-2.8-2.5-1.6-0.2-3.2-0.1-4.7 0.4-1.6 0.6-3 1.4-4.1 2.6-0.9 1.1-1.1 2.6-0.6 4 0.4 1.1 1.4 2 2.6 2.3 0.5 0.2 1 0.2 1.5 0.2 0.2 0 0.7 0 1.2-0.1zm101-15.1c-0.6 0-1.1-0.5-1.1-1.1s0.5-1.1 1.1-1.1 1.1 0.5 1.1 1.1c0.1 0.6-0.5 1.1-1.1 1.1zm-8.8 8.9l11.9 3.6 2.3-6.9-2.3-0.7-1.2 3.8-9.9-2.8-0.8 3zm-1.7 5l11.4 4.7 1.3-2.9-11.5-4.8-1.2 3zm1.9 6.7l1.4-2.6c-0.3-0.2-0.6-0.3-0.9-0.5-0.3-0.1-0.6-0.2-1-0.3-1.3-0.2-2.6 0.1-3.6 1-1.3 1.1-1.7 3-1 4.6 0.8 1.4 1.9 2.5 3.2 3.4s2.8 1.5 4.4 1.7c1.4 0 2.8-0.7 3.6-1.9 0.9-1.4 0.9-3.1 0.1-4.5-0.2-0.3-0.5-0.6-0.7-0.8-0.3-0.3-0.6-0.5-0.9-0.7l-1.5 2c0.2 0.1 0.3 0.3 0.5 0.4l0.6 0.6c0.4 0.5 0.4 1.1 0.1 1.6s-0.9 0.6-1.5 0.5c-0.9-0.4-1.8-0.9-2.7-1.4-1-0.6-1.9-1.3-2.8-2.2-0.2-0.3-0.2-0.8 0-1.1s0.6-0.5 0.9-0.6c0.3 0.1 0.6 0.2 1 0.3s0.5 0.4 0.8 0.5zm-4.8 17.8l2-2-4.4-4.4 6.7 2 1.7-1.7-8.8-9-1.8 1.8 4 4.1-6.2-1.9-2.1 2 8.9 9.1zm-16.5-3l5.3 7.8c0.2 0.3 0.4 0.5 0.6 0.6 0.3 0.2 0.6 0.4 0.9 0.5 1.4 0.4 2.8 0.1 4-0.8 0.8-0.7 1.4-1.7 1.6-2.7 0.1-0.4 0-0.8 0-1.2-0.1-0.4-0.2-0.7-0.4-1.1l-5.3-7.9-2.1 1.6 5.3 7.5c0.3 0.6 0.2 1.4-0.5 1.8-0.6 0.3-1.3 0.2-1.7-0.3l-5.1-7.6-2.6 1.8zm-4.4 13c1.2 1.1 2.9 1.2 4.3 0.6 1.2-0.5 2-1.7 2.2-3 0.2-1.6 0-3.3-0.6-4.8-0.5-1.3-1.3-2.5-2.4-3.5-1.1-0.9-2.6-1.2-4-0.7s-2.3 1.7-2.6 3.2c-0.1 1.7 0.2 3.3 0.8 4.8 0.7 1.4 1.5 2.4 2.3 3.4zm2-1.8c0.3 0.3 0.8 0.4 1.2 0.2s0.7-0.5 0.7-1c-0.2-1.1-0.5-2.1-0.9-3.1-0.4-1.1-0.9-2.1-1.4-3.1-0.4-0.4-0.8-0.5-1.2-0.3-0.5 0.2-0.8 0.6-0.8 1.1 0.2 1.2 0.6 2.4 1 3.5 0.5 1 0.9 1.8 1.4 2.7zm-9.3-2.5l2.6-0.6-0.4-1.3c-0.2-0.3-0.3-0.6-0.5-1-0.8-1.1-2-1.7-3.4-1.6-1.5 0.1-2.8 1-3.3 2.4-0.4 1.1-0.6 2.2-0.6 3.3 0 2 0.7 4 1.9 5.7 0.9 1.2 2.4 1.7 3.9 1.4 1.6-0.3 2.8-1.4 3.2-3 0-0.3 0.1-0.7 0.1-1.1v-1.2l-2.4 0.2v1.2c0 0.3-0.1 0.5-0.1 0.7-0.2 0.5-0.7 0.8-1.2 0.8-0.6 0-1-0.3-1.2-0.9-0.3-1-0.6-2.1-0.8-3.2l-0.3-3.1c0-0.4 0.4-0.8 0.8-0.9 0.3-0.1 0.6 0 0.9 0.2 0.2 0.2 0.3 0.5 0.5 0.7 0 0.6 0.2 1 0.3 1.3zm-22.9 7.1l2.8 0.6 1.1-5 4.8-6.6-2.5-0.5-2.8 4.1-0.7-4.7-2.9-0.7 1.4 7.9-1.2 4.9zm-11.8-4.5l2.6 1.3 4.3-9.1 2.3 1.1 0.9-2.2-7.3-3.6-1.1 2.1 2.4 1.2-4.1 9.2zm-12.2-8l7.4-10.3 2.1 1.7-0.5 5.9 3.1-4.1 1.9 1.5-7.3 10.3-1.8-1.3 0.9-7.2-3.8 4.9-2-1.4zm0.1-17.2l-7 6.5c-0.3 0.3-0.5 0.6-0.7 1l-0.3 0.9c-0.2 1.3 0.3 2.6 1.2 3.7 0.8 0.8 1.8 1.2 2.8 1.3h0.9c0.5-0.2 1-0.3 1.4-0.6l7.2-6.8-1.9-1.9-6.7 6.2c-0.5 0.4-1.1 0.5-1.6 0.1s-0.6-1-0.3-1.6l6.9-6.5-1.9-2.3zm-10.4 3.7c1.8-0.1 3.5-0.6 5-1.5 1.3-0.8 2.4-1.9 3.3-3.1 0.5-1.2 0.5-2.6-0.1-3.8-0.7-1.3-2-2.2-3.4-2.3-1.9 0-3.7 0.6-5.3 1.6-1.1 0.7-2.1 1.6-2.8 2.6-0.9 1.5-0.9 3.4 0.2 4.8 0.7 1 1.8 1.6 3.1 1.7zm0-2.8c1.1-0.3 2-0.8 3-1.3 1.1-0.6 2-1.3 3-2.1 0.2-0.3 0.2-0.7 0-1-0.2-0.4-0.7-0.6-1.1-0.6-1.2 0.4-2.4 0.9-3.4 1.4-0.8 0.5-1.6 1-2.3 1.6-0.4 0.4-0.4 1-0.1 1.5 0.1 0.3 0.4 0.5 0.9 0.5zm-4.5-22.1c-0.6 0-1.1-0.5-1.1-1.1s0.5-1.1 1.1-1.1 1.1 0.5 1.1 1.1-0.5 1.1-1.1 1.1z"/>
		<path class="st3" d="m57.5 18.4c-22 0-39.9 17.9-39.9 39.9s17.8 39.9 39.9 39.9c22 0 39.9-17.9 39.9-39.9 0-22.1-17.9-39.9-39.9-39.9zm27.1 21.8c0 0.3 0 0.7-0.1 1 0 0.2-0.2 0.2-0.3 0.2s-0.3 0-0.4-0.2v-0.2-0.3l-0.2-0.6c0-0.2-0.2-0.3-0.4-0.3s-0.3 0.1-0.4 0.2l-2.3 1c0.2-0.5 0.2-1 0.3-1.5 0-0.4 0.1-0.9 0.1-1.3 0.1 0 0.2-0.1 0.3-0.2 0.1 0 0.2-0.1 0.2-0.2 0.5 0.3 1 0.5 1.6 0.6 0.5 0.2 1 0.3 1.5 0.4 0.1 0.5 0.1 0.9 0.1 1.4zm-3.9-3.3c0-0.2 0.2-0.3 0.3-0.3 0.2 0 0.3 0.2 0.3 0.3 0 0.2-0.2 0.3-0.3 0.3-0.2 0-0.3-0.1-0.3-0.3zm-13.9-4.2c0.3-1.6 1.3-2.9 2.7-3.7 1.2-0.8 2.6-1 4-0.8 2.2 0.4 4.4 1.4 6.1 2.8 2.3 1.9 3.9 4.7 4.5 7.6-0.4-0.1-0.9-0.2-1.2-0.3-0.5-0.2-0.9-0.4-1.4-0.6 0-0.3 0-0.6-0.1-0.8-0.1-0.3-0.3-0.5-0.6-0.7-0.2-0.1-0.4 0-0.6 0.1s-0.3 0.3-0.3 0.5c-0.1 0.2-0.1 0.4 0 0.6 0.1 0.3 0.2 0.6 0.5 0.8 0 0.6 0 1.1-0.1 1.6s-0.2 0.9-0.3 1.4c-0.7-0.6-1.3-1.2-1.8-2-0.7-1-1.2-2-1.6-3.2-0.1-0.9-0.5-1.8-0.9-2.6-0.3-0.4-0.6-0.8-0.9-1.1-0.8-0.5-1.7-0.6-2.6-0.2-0.8 0.4-1.4 1.2-1.4 2.2 0 0.9 0.2 1.9 0.4 2.8 0.3 1.4 0.8 2.6 1.5 3.9l3.3 5.4v0.4c0.6 0.1 0.5 1-0.1 1-0.5 0-0.7-0.9-0.2-1 0.3-0.1-0.4-0.7-0.7-0.8-0.3-0.2-0.7-0.2-1-0.2 0-0.1 0-0.3-0.1-0.4-0.1-0.2-0.3-0.4-0.6-0.4-0.2 0-0.4 0-0.6-0.1s-0.5-0.2-0.6-0.5c0 0.3 0 0.6-0.1 0.9-0.2 0.3-0.3 0.5-0.6 0.7v0.3c0 0.2 0.1 0.2 0.2 0.3-0.3 0.2-0.5 0.5-0.6 0.8-0.2 0.4-0.1 0.9 0.1 1.3 0.6 0 0.7 0.9 0 1-0.5 0.1-0.8-0.4-0.5-0.8-1-2.1-1.9-4.3-2.7-6.5-0.1-0.3-0.2-0.5-0.3-0.7-0.5-1.7-0.8-3.4-0.9-5.1-0.1-1.4 0-2.7 0.1-3.9zm12.5 18.3c0-0.3-0.2-0.8-0.3-0.8l0.3-0.2c0.2 0.3 0.3 0.7 0.3 1 0 0.4 0 0.9-0.2 1.2l-0.1-0.6v-0.6zm0.2 4.4c0.2 0.3 0.3 0.7 0.3 1.1s-0.1 0.9-0.3 1.2c-0.1-0.2-0.3-0.3-0.4-0.3-0.2 0-0.3 0.2-0.4 0.3h-0.1c-0.2-0.3-0.3-0.6-0.3-1 0-0.3 0.2-0.7 0.3-0.9 0.1 0.2 0.3 0.2 0.5 0.2 0.3-0.1 0.5-0.3 0.4-0.6zm-0.1-1.1c0.6 0.5 1 1.2 1.1 2.1 0 0.9-0.3 1.7-0.9 2.3v-0.5c0.3-0.4 0.5-1 0.6-1.6 0-0.6-0.2-1.3-0.6-1.7l-0.2-0.6zm0.2 9c0 0.3-0.1 0.6-0.2 0.9-0.1-0.2-0.3-0.2-0.5-0.2s-0.3 0.1-0.5 0.2c-0.2-0.3-0.3-0.6-0.3-0.9s0.1-0.6 0.3-0.8c0.1 0.2 0.3 0.3 0.5 0.3s0.4-0.2 0.4-0.5c0.2 0.2 0.3 0.6 0.3 1zm-0.2-1.6l0.1-0.6c0.7 0.6 1.1 1.4 1 2.3 0 0.8-0.5 1.5-1.1 2v-0.6c0.3-0.4 0.5-0.9 0.6-1.4 0-0.7-0.2-1.2-0.6-1.7zm-1.2 2.9v0.7c-0.5-0.5-0.9-1.3-1-2.1 0-0.7 0.4-1.5 1.1-2v0.6c-0.3 0.4-0.4 0.9-0.4 1.3-0.1 0.6 0 1.1 0.3 1.5zm0.4-2.5l0.2-4.2c0-0.1 0.1-0.1 0.2-0.1s0.2 0.1 0.2 0.2l-0.2 4.2-0.2 0.2c-0.1-0.1-0.1-0.2-0.2-0.3zm-0.2-4v0.5c-0.6-0.5-0.9-1.2-1-2 0-0.8 0.3-1.6 1-2l0.1 0.6c-0.3 0.4-0.5 0.9-0.5 1.4-0.1 0.6 0.1 1.1 0.4 1.5zm0.5-2.8c-0.1 0-0.2 0-0.2-0.1l-0.3-3.7c0-0.1 0.1-0.2 0.2-0.2s0.2 0 0.3 0.1l0.3 3.7c-0.1 0.2-0.2 0.2-0.3 0.2zm-0.6-3.5c-0.2 0-0.4-0.1-0.6-0.2s-0.4-0.2-0.5-0.4l1.7-0.8s0.1 0.3 0.1 0.5v0.4c-0.2-0.1-0.3-0.1-0.5 0s-0.3 0.3-0.2 0.5zm-11.6-3.8l0.8 0.1c0.3 0.1 0.6 0.2 0.9 0.3 0.2 0.1 0.3 0.2 0.4 0.3 0.1 0.2 0.2 0.3 0.2 0.5 0.1-0.2 0.3-0.4 0.5-0.5s0.4-0.1 0.6 0c-0.3 0.8 0.5 1.5 1.2 1.1 0.7-0.3 0.6-1.3-0.1-1.6-0.2-0.3-0.1-0.7 0.1-1 0.2-0.4 0.5-0.6 0.9-0.6v-0.3h-0.4c-0.1 0-0.2 0-0.2-0.2 0-0.1 0-0.2 0.1-0.2 0.2-0.2 0.3-0.3 0.4-0.5s0.2-0.4 0.2-0.6c0.2 0.2 0.3 0.3 0.6 0.3h0.4c0.1 0 0.2 0 0.2 0.1 0 0 0 0.1 0.1 0.2v0.3l-0.3 0.3 0.2 0.2c0.3-0.2 0.6-0.2 1-0.1 0.3 0.1 0.6 0.3 0.7 0.5-0.5 0.6 0 1.6 0.9 1.4 0.7-0.2 0.9-1.2 0.2-1.6 0-0.2 0.2-0.3 0.3-0.4 0.2-0.2 0.5-0.2 0.7-0.1-0.1-0.2-0.1-0.5 0-0.7s0.3-0.4 0.5-0.5 0.3-0.2 0.4-0.3c0.2-0.2 0.3-0.4 0.3-0.6l0.5 4.3-0.7 0.5c-0.2-0.1-0.5-0.2-0.8-0.3s-0.6-0.2-0.9-0.1c-0.3 0-0.6 0.1-0.8 0.3-0.3 0.2-0.3 0.4-0.4 0.6v0.8l-1.7 0.6c-0.3-0.5-0.9-0.8-1.5-0.6s-1 0.8-0.9 1.4l-1.7 0.4-2.9-3.7zm2.3 3.3c-0.2 0.1-0.3 0-0.5-0.2-0.1-0.1-0.1-0.3 0-0.4l0.5 0.6zm-1.1-1.4c-0.1 0-0.2 0-0.3-0.1s-0.1-0.3-0.1-0.4l0.4 0.5zm11.1-3.9v-0.8c0.2 0 0.3 0.2 0.3 0.3-0.1 0.3-0.1 0.4-0.3 0.5zm0.3 1.1c0 0.2 0 0.3-0.2 0.4l-0.1-0.6c0.2 0 0.3 0 0.3 0.2zm-2.2 1.8h-0.5c-0.1 0-0.2 0.1-0.3 0.1l-0.2 0.2-0.1 0.3v0.2l-0.3 0.2v-0.5c0-0.1 0-0.2 0.1-0.2 0-0.2 0.2-0.2 0.3-0.3s0.5-0.2 0.6-0.2h0.4s0.6 0.2 0.8 0.3h-0.5c-0.1 0.1-0.1 0-0.3-0.1zm0.1 0.3l-0.8 0.3c0-0.2 0-0.3 0.2-0.4h0.4l0.2 0.1zm1-0.2l0.8 0.7-0.4 0.2-0.8-0.7 0.4-0.2zm-4.8 1.7c-0.3 0.1-0.6 0.2-0.8 0.3-0.3 0.1-0.5 0.2-0.8 0.2-0.1-0.4 0.2-0.8 0.5-1 0.5 0 0.9 0.1 1.1 0.5zm-3.3 1.3c1.2-0.3 2.4-0.6 3.6-1 1.4-0.5 2.7-1 4-1.7l0.8 0.7c-1.1 0.6-2.2 1.2-3.3 1.7l-4.6 1.3c-0.3 0.1-0.6-0.1-0.7-0.5 0-0.2 0.1-0.4 0.2-0.5zm6.6-0.8c0.2 0.2 0.5 0.5 0.7 0.6s0.5 0.3 0.8 0.3v0.3c-0.3 0-0.7-0.2-1-0.3-0.3-0.2-0.6-0.5-0.9-0.7l0.4-0.2zm2.6-1.6c-0.2-0.1-0.3-0.3-0.4-0.3l-0.4-0.4 0.8-0.5c0.2 0 0.3 0 0.4 0.2 0.2 0.2 0.3 0.4 0.1 0.7l-0.5 0.3zm-16.3-14.2c0.7 0.9 1.1 2 1.1 3.1l-0.6 7.7c-0.1 1.4 0 2.8 0.2 4.2 0.2 1.3 0.6 2.5 1.1 3.7 0.2 0.5 0.6 0.9 1 1.3l1.7 1.1c-0.3 0.1-0.6 0.1-0.8 0.1-0.3 0-0.5 0-0.8-0.2-1-0.3-1.9-0.9-2.6-1.7-1.2-1.2-1.9-2.8-2-4.5-0.1-1.2-0.2-2.4-0.2-3.6-0.1-1.1-0.1-2.2 0-3.3l0.3-6.2c0-0.5-0.1-1.1-0.2-1.7-0.1-0.5-0.2-1-0.4-1.6 0.9 0.3 1.6 0.8 2.2 1.6zm-23.9 36.7c0.3-0.2 0.6-0.3 1-0.3 0.3-0.1 0.6-0.1 0.9 0v-0.3c-0.2 0-0.3-0.1-0.5-0.1s-0.5 0-0.6 0.2c-1.1 0.3-2.3 0.5-3.4 0.7s-2.2 0.3-3.3 0.2c-0.3 0-0.5-0.1-0.8-0.2s-0.6-0.3-0.8-0.6c-0.1-0.3 0-0.7 0.3-1 0.1-0.1 0.3-0.2 0.5-0.3l9.3-4.8c0.5-0.3 1-0.5 1.6-0.7 0.5-0.2 1-0.3 1.5-0.5 0 0.3 0.1 0.5 0.2 0.7s0.2 0.5 0.3 0.6l-0.3 1.5c-1 0.3-1.7 1.2-1.9 2.2-0.1 1.1 0.3 2.1 1.2 2.6l0.1 2-0.6 0.4c-0.8-0.3-1.6-0.6-2.3-1-0.8-0.4-1.6-0.8-2.4-1.3zm15.5-15.3c-0.2 0.8-0.6 1.6-1 2.2-0.4-0.2-0.6-0.5-0.9-0.9-0.3-0.3-0.5-0.7-0.6-1.2 0.5-1.2 0.9-2.4 1.1-3.7 0.3-1.5 0.5-3 0.6-4.4h0.5c-0.2 1.2-0.2 2.4 0.1 3.6 0.1 0.6 0.3 1.2 0.5 1.8 0.1 0.9 0 1.8-0.3 2.6zm0.6-2l1.1 1.6-0.5 3.8c-0.3-0.2-0.6-0.4-0.9-0.7s-0.5-0.6-0.6-0.9c0.2-0.5 0.4-1.1 0.6-1.6 0.1-0.6 0.3-1.4 0.3-2.2zm-10.5 20.6c-0.1 0-0.2-0.1-0.2-0.2l0.3-4.5c0-0.1 0.2-0.1 0.3-0.1s0.1 0 0.2 0.1l-0.3 4.5c-0.1 0.2-0.2 0.2-0.3 0.2zm0.2 2l-0.1 4.5c-0.1 0.1-0.2 0.1-0.2 0.1-0.1 0-0.2-0.1-0.2-0.2l0.1-4.3c0-0.1 0.1-0.2 0.2-0.2 0 0 0.1 0.1 0.2 0.1zm-1.3-8c0.1-0.9 0.6-1.6 1.4-1.9l-0.1 0.5c-0.4 0.4-0.7 0.9-0.7 1.6 0 0.5 0.1 0.9 0.3 1.4l-0.1 0.5c-0.5-0.6-0.8-1.4-0.8-2.1zm1.5 0.7c-0.2 0-0.5 0.1-0.5 0.3l-0.1-0.8c0-0.5 0.2-0.8 0.4-1.2 0 0.2 0.2 0.3 0.3 0.4 0.2 0 0.3 0 0.5-0.2 0.2 0.4 0.2 0.7 0.2 1.1 0 0.3-0.2 0.6-0.4 0.9 0-0.2-0.2-0.5-0.4-0.5zm0.4 1c0.4-0.3 0.7-0.8 0.8-1.4s-0.1-1.2-0.5-1.6l0.2-0.4c0.5 0.6 0.7 1.4 0.6 2.1s-0.5 1.4-1.1 1.7v-0.4zm0-2.7c-0.1 0-0.2 0.1-0.2 0.1-0.1 0-0.2 0-0.2-0.1l0.8-4c0.1-0.1 0.2-0.1 0.2-0.1s0.1 0 0.2 0.1l-0.8 4zm0.6-5.6c-0.4 0.5-0.6 1.1-0.5 1.7l-0.1 0.5c-0.5-0.9-0.4-1.9 0.2-2.6 0.6-0.8 1.7-1.1 2.7-0.7l-0.3 0.3c-0.8-0.1-1.5 0.2-2 0.8zm-6.5-5c0 0.2 0 0.4-0.1 0.6 0 0.2-0.1 0.3-0.2 0.4s-0.3 0.1-0.4 0-0.2-0.2-0.1-0.3c0.2-0.3 0.3-0.6 0.5-0.9s0.5-0.7 0.8-1l5.3-8.6c0.4-0.1 0.8-0.2 1.2-0.5 0.6-0.3 1.1-0.6 1.6-1 0.3 0.2 0.6 0.2 0.9 0.2s0.6 0.1 1 0c-0.5 0.7-1.1 1.6-1.6 2.3-0.6 1.1-1.2 2.1-1.7 3.2-0.6 1.7-1.4 3.3-2.3 4.8-1 1.7-2.2 3.2-3.5 4.6-0.2 0.2-0.5 0.2-0.8 0.2-0.3-0.2-0.4-0.4-0.4-0.7 0-0.2-0.1-0.5-0.1-0.7s0-0.5-0.1-0.8v-1.9 0.1zm-2.2 1.7c-1 1.1-2.1 2.1-3.3 3-0.2 0.1-0.5 0.1-0.7 0s-0.3-0.3-0.3-0.5v-2.2c0.1-0.6 0.2-1.2 0.3-1.9 1.1-0.6 2-1.2 3-1.9 0.9-0.8 1.8-1.7 2.6-2.6l4-5.6c0.3 0.1 0.6 0.1 0.9 0.1s0.8 0 1.1-0.1l-5 8.4c-0.8 1.1-1.7 2.3-2.6 3.3zm6.5-0.7c0.6-0.9 1.4-2.1 1.9-3.2 0.6-1.1 1.1-2.2 1.6-3.3s1-2.2 1.6-3.2c0.5-0.7 0.9-1.4 1.4-2.2l1.2 0.4c-0.4 2.1-0.9 4.1-1.7 6.1-0.8 2.3-1.9 4.5-3.1 6.5-0.2 0.2-0.3 0.3-0.6 0.2-0.2 0-0.3-0.2-0.4-0.3-0.2-0.2-0.3-0.5-0.3-0.8-0.1-0.3-0.2-0.7-0.2-1.1 0 0.3-0.3 0.7-0.6 0.8-0.3 0.3-0.9 0.3-0.8 0.1zm7.9-11c0.2 0.3 0.5 0.6 0.9 0.8l0.9 0.3c0 1.3-0.2 2.6-0.5 3.9-0.4 2-1.1 3.9-2.1 5.7-0.1 0.1-0.2 0.1-0.3 0.1-0.2 0-0.2-0.1-0.3-0.2-0.2-0.2-0.5-0.5-0.6-0.8-0.2-0.3-0.3-0.7-0.3-1v-0.5c0-0.2 0-0.3 0.1-0.5 0.4-1.2 0.8-2.5 1.2-3.7 0.3-1.4 0.6-2.7 1-4.1zm-5.3 17c0.4-0.1 0.8-0.3 1.1-0.6s0.6-0.8 0.6-1.3l0.5-0.1c0 0.7-0.3 1.3-0.8 1.8-0.4 0.4-1 0.6-1.6 0.7l0.2-0.5zm0-1l1.1-0.3c-0.1 0.2-0.2 0.5-0.4 0.6-0.2 0.2-0.4 0.3-0.6 0.3v-0.4c-0.1 0-0.1-0.1-0.1-0.2zm1.3-1c-0.1 0-0.2 0-0.2-0.2v-0.2l3.6-1.3c0.1 0 0.2 0 0.2 0.1v0.2l-3.6 1.4zm3.2-2.3c-0.1 0-0.2 0.2-0.2 0.2 0 0.1-0.1 0.2-0.1 0.2h-0.4c0-0.2 0.1-0.3 0.2-0.4 0.1-0.2 0.2-0.2 0.3-0.3 0.5-0.2 0.9-0.2 1.4-0.1 0.4 0.1 0.7 0.3 1 0.6l-0.5 0.3c-0.2-0.2-0.4-0.3-0.7-0.3-0.3-0.2-0.6-0.3-1-0.2zm3.5-12.1c-0.3 0.1-0.6 0-0.9 0-0.6-0.1-1.1-0.4-1.4-0.9 0.2 0 0.6-0.2 0.8-0.3s0.9-0.6 1.1-0.7l1-0.9-0.6 2.8zm-1.2-1.9c-0.4 0.4-0.8 0.5-1.2 0.5-0.5 0-1-0.1-1.4-0.3-0.1 0-0.1-0.1-0.1-0.2v-0.2c0.6-0.2 0.9-0.3 1.3-0.6 0.9-0.5 1.4-1.2 2-2 0.2-0.3 0.6-0.6 0.9-0.9 0.2-0.2 0.4-0.3 0.6-0.4l-0.4 2.7-1.7 1.4zm1.9-4.3c-0.2 0.1-0.3 0.2-0.4 0.3-0.3 0.2-0.6 0.4-0.8 0.6-0.7 1-1.5 1.8-2.5 2.4-0.4 0.3-0.8 0.5-1.3 0.6s-1.4-0.1-1.4-0.1l4.7-4.9c0.3-0.3 0.7-0.5 1.1-0.8 0.3-0.2 0.6-0.3 0.9-0.4 0 0.3 0.1 0.7 0.1 1v0.9c-0.2 0.3-0.3 0.3-0.4 0.4zm-0.7-2.3c-0.5 0.3-0.8 0.5-1.2 0.9l-5.1 5.2c-0.8 0.6-1.7 1.1-2.7 1.3s-2 0.3-3 0.2c0.2-0.1 0.5-0.2 0.8-0.4s0.5-0.4 0.8-0.6l2.9-3.2 3.3-3.7c0.7-0.6 1.5-1.2 2.4-1.7 0.6-0.3 1.4-0.6 2.1-0.8 0.2 0.3 0.3 0.8 0.5 1.1l0.3 1.3c-0.4 0.1-0.8 0.2-1.1 0.4zm-2-2.4c-0.8 0.5-1.8 0.9-2.5 1.6l-3.3 3.6-3.1 3.3c-1.1 1.1-2.4 1.9-4 2-0.7 0-1.4 0-2.1-0.1l0.5-1.6c0.3-0.8 0.6-1.5 1-2.2 0.4 0 0.8-0.2 1.1-0.3 0.4-0.2 0.8-0.5 1.1-0.8l5.1-4.9c0.9-0.7 1.9-1.2 3-1.5 1.7-0.5 3.4-0.4 5 0.1-0.5 0.2-1.2 0.5-1.8 0.8zm-12.9 11.1c0.8-0.1 1.6-0.4 2.2-0.8l0.7 0.2-3.8 5.4c-0.8 0.9-1.7 1.8-2.6 2.5-0.9 0.8-2 1.4-3 1.9-0.2 0-0.3 0-0.4-0.1s-0.1-0.2-0.1-0.3c0.3-0.5 0.5-0.9 0.8-1.4 0.3-0.6 0.5-1.2 0.8-1.9 0.6-0.6 1.2-1.2 1.6-2 0.8-1.1 1.3-2.3 1.7-3.6 0.6 0.1 1.3 0.2 2.1 0.1zm4.6 29l-0.1 0.6c-0.6-0.4-1-1.1-1.1-1.9 0-0.9 0.4-1.7 1.2-2.2v0.6c-0.3 0.4-0.6 0.9-0.6 1.4 0.1 0.6 0.3 1.1 0.6 1.5zm1.8 5.7c-0.1 0.6-0.5 1.2-0.9 1.6-0.2 0-0.4 0.1-0.6 0.1-0.3 0-0.6-0.1-0.8-0.3-0.5-0.4-0.8-1-0.8-1.6 0-0.8 0.3-1.6 1-2l0.2 0.4c-0.4 0.5-0.6 1-0.6 1.6 0.1 0.5 0.2 0.9 0.5 1.2 0.1 0.2 0.4 0.3 0.6 0.3 0.1 0 0.3-0.1 0.3-0.2 0.3-0.3 0.5-0.8 0.6-1.3 0-0.5-0.1-1-0.3-1.4l0.1-0.5c0.5 0.5 0.8 1.3 0.7 2.1zm-0.9-5.1v-0.6c0.3-0.3 0.5-0.9 0.5-1.4s-0.2-1.1-0.5-1.4v-0.4c0.6 0.4 1.1 1.1 1.1 1.9 0.1 0.8-0.4 1.6-1.1 1.9zm10.6-1.8c0.1-0.3 0.3-0.5 0.6-0.6l-0.3-0.3c-0.3 0.2-0.5 0.4-0.6 0.7-0.1 0.2-0.1 0.3-0.1 0.5l0.2 1c-0.8-0.6-1.7-1-2.6-1.4-1.1-0.5-2.3-0.7-3.5-0.8-0.5 0-1.1-0.1-1.6-0.2s-0.9-0.2-1.4-0.2c-0.2-0.3-0.3-0.6-0.6-0.9-0.2-0.2-0.4-0.3-0.5-0.5l0.2-1.9c0.9-0.4 1.4-1.2 1.6-2.1 0.1-0.9-0.3-1.9-1-2.5l0.4-1.7c0.6 0 1.3-0.3 1.8-0.8 0.5-0.4 0.8-1 0.8-1.6l0.5-0.2c0.9-0.5 1.8-1.1 2.7-1.5 0.8-0.4 1.8-0.8 2.7-1.2l1.1 0.8 0.2-1.2 0.5-0.2c0.2 0.4 0.4 0.7 0.6 0.9 0.3 0.3 0.6 0.5 0.9 0.7 0.2-0.3 0.3-0.8 0.3-1.1s0-0.6-0.1-1l3.3 3c0.3 0.9 0.9 1.7 1.6 2.3 0.8 0.6 1.7 1.1 2.7 1.2l0.4 0.1c0.2 0.1 0.3 0.2 0.5 0.2v-0.3c-0.1-0.1-0.2-0.2-0.3-0.2s-0.3-0.1-0.3-0.1c-0.8-0.1-1.6-0.4-2.2-0.9-0.8-0.5-1.4-1.2-1.7-2l2 1.4v-0.3c-0.8-0.6-1.6-1.2-2.4-1.9-0.7-0.6-1.5-1.3-2.2-1.9-0.8-0.6-1.5-1.4-2.1-2.1s-1.2-1.6-1.7-2.4c-0.6-1.1-0.9-2.4-1.1-3.6s-0.1-2.3 0.2-3.5c0-2.4 1-5.6 1-6.1 0-0.8 0.1-1.7-0.1-2.6-0.2-0.8-0.4-1.7-0.8-2.5 0.2 0.1 0.5 0.2 0.7 0.3s0.5 0.3 0.7 0.4l-0.2-0.5c-0.9-0.6-2-0.9-3.1-1.1-1.3-0.2-2.6 0-3.8 0.2-1.9 0.3-3.5 1.7-4.8 3.1-1 1-1.7 1.8-2.6 2.6-0.5 0.3-1.3 1.2-2 1.6-0.7 0.3-1.4 0.6-2.2 0.6l-0.2 0.3h0.4c0.2 0 0.4-0.1 0.6-0.1-0.3 0.5-0.6 1.1-0.8 1.6-0.3 0.7-0.5 1.4-0.7 2.1-0.3 1.3-0.7 2.6-1.4 3.7s-1.6 2.1-2.7 2.9c-0.3 0.2-0.6 0.3-0.9 0.4s-0.7 0.1-1 0.1v0.5h1.2c0.5-0.2 1-0.4 1.4-0.8-0.6 1.7-1.6 3.3-2.9 4.6-1.2 1.2-2.6 2.1-4.2 2.7-0.2 0.1-0.3 0-0.4-0.1s-0.1-0.3 0-0.4c0.4-0.9 0.8-1.7 1.1-2.6 0.3-0.7 0.5-1.4 0.6-2.1 0.9-3 2.1-5.8 3.5-8.6 1.2-2.4 2.6-4.8 4.2-7 1-1.7 2.2-3.3 3.5-4.8 1.9-2.2 4.2-4.1 6.6-5.6 2.2-1.2 4.5-1.7 7-1.6 1.5 0.1 2.9 0.4 4.3 0.9 1.2 0.6 2.2 1.4 3 2.5 1 1.4 1.6 3.1 1.5 4.8l-0.3 6.1v3.4c0 1.2 0.1 2.3 0.2 3.5 0.1 1.7 0.8 3.3 1.9 4.6 1.3 1.4 3.1 2.3 5.1 2.4 0.5 0 1 0.1 1.4 0.2 0.4 0 0.9 0.2 1.3 0.3 0.3 0.2 0.6 0.3 0.9 0.5 0.2 0.1 0.3 0.2 0.5 0.3 0.1 0.1 0.2 0.2 0.3 0.2s0.2 0.1 0.3 0.1l0.2-0.3c-0.1 0-0.2 0-0.3-0.1-0.1 0-0.2-0.1-0.2-0.2-0.2-0.2-0.4-0.4-0.6-0.5-0.2-0.2-0.5-0.3-0.8-0.4-0.5-0.2-1-0.3-1.5-0.5-0.5-0.1-1.1-0.2-1.7-0.2 0.9-0.2 1.8-0.7 2.5-1.5 0.5-0.6 0.9-1.4 0.9-2.2 1.2-0.2 2.4-0.6 3.6-1 0.5-0.2 0.9-0.3 1.3-0.6 0.3 0.3 0.6 0.6 1.1 0.9 0.3 0.2 0.8 0.3 1.2 0.4l0.1 1.2c-0.8 0.6-1.3 1.6-1.3 2.6 0 0.9 0.3 1.9 1.2 2.4v1.5c-0.8 0.5-1.4 1.4-1.4 2.4 0 1.1 0.4 2 1.2 2.6v1.6c-0.6 0.3-1 0.8-1.3 1.4-0.3 0.7-0.4 1.4-0.2 2.1-0.3 0.2-0.7 0.4-1 0.6-0.6 0.3-1.2 0.5-1.9 0.6-2.4 0.2-4.7 0.6-7 1.5-2 0.8-3.9 1.8-5.6 3-0.4 0.4-0.8 0.9-1.1 1.3s-0.5 0.8-0.7 1.2c-0.1 0.2-0.2 0.3-0.2 0.4 0 0.2 0 0.3 0.1 0.5 0 0.9-0.7 1.6-1.6 1.6-1 0-1.7-0.9-1.5-1.9 0-0.3 0-0.6-0.1-0.9l-0.3-0.9c-0.9-0.4-0.9-0.9-0.7-1.3zm1-19.3c0.2 0.3 0.4 0.5 0.6 0.8l0.8 0.8c0.2 0.4 0.2 0.8 0.2 1.2 0 0.3 0 0.5-0.2 0.8-0.6-0.3-1.1-0.8-1.3-1.4-0.2-0.7-0.3-1.5-0.1-2.2zm20.9 14.1l-0.2 0.4c-0.5-0.6-0.6-1.4-0.5-2.2 0.2-0.8 0.6-1.4 1.3-1.7l-0.1 0.7c-0.3 0.3-0.6 0.8-0.7 1.2-0.1 0.5-0.1 1 0.2 1.6zm-11.9 4.9c0-0.1 0-0.2 0.1-0.2h0.2l3.7 2.3c0.1 0 0.1 0.2 0 0.3s-0.2 0.1-0.3 0.1l-3.7-2.5zm0.4 0.9c-0.5 0-0.9 0-1.3-0.2-0.3-0.1-0.7-0.3-1-0.6l0.2-0.6c0.2 0.3 0.5 0.5 0.8 0.6 0.3 0.2 0.8 0.3 1.1 0.3l0.2 0.5zm-0.2-2.7l0.5-0.3c0.2 0.3 0.3 0.6 0.4 0.9 0.2 0.4 0.2 0.8 0.2 1.1h-0.4l-0.3-0.9c-0.1-0.3-0.2-0.6-0.4-0.8zm3.8 3.4l-0.2-0.3c0.5-0.2 1.1-0.2 1.6 0s1.4 1 1.4 1l-0.3 0.1c-0.3-0.3-0.6-0.5-0.9-0.6-0.6-0.2-1.2-0.3-1.6-0.2zm2 1.4l3.9-1.7s0.1 0 0.2 0.1v0.2l-4 1.7c-0.1 0-0.2 0-0.2-0.2l0.1-0.1zm4-3.4c-0.3 0.4-0.5 1-0.6 1.6l-0.3 0.2c-0.1-0.8 0.2-1.6 0.7-2.2 0.3-0.3 0.7-0.6 1.2-0.8l0.1 0.4c-0.5 0.1-0.8 0.4-1.1 0.8zm-12.1 1.7c0 0.5-0.2 1.1-0.5 1.5h-1.4c-0.3-0.2-0.5-0.5-0.6-0.8-0.1-0.4-0.1-0.8 0.1-1.2l2.5-1.6c0 0.2 0 0.3-0.1 0.5s-0.2 0.2-0.3 0.3c0.2 0.4 0.3 0.9 0.3 1.3zm-1.5 12.4c-0.4 0.2-0.8 0.5-1.2 0.7-0.2-0.2-0.5-0.3-0.7-0.5-0.3-0.2-0.6-0.3-1-0.5l-3.2-1c0.2-0.2 0.2-0.3 0.3-0.5 0-0.1 0.1-0.3 0.1-0.4l0.5-5.9 1.1 0.1-0.2 4c0 0.6 0.3 1.2 0.7 1.6 0.4 0.5 1 0.7 1.6 0.8l0.1-0.2c-0.2 0-0.5-0.1-0.6-0.2-0.2-0.1-0.4-0.3-0.6-0.4 0.8 0.2 1.5 0.3 2.3 0.3l1.8 0.3c0.1 0.2 0.2 0.3 0.3 0.5l0.7 0.7c-0.7 0.1-1.4 0.2-2 0.6zm5-3.5c-0.3 0.1-0.6 0.3-0.8 0.5l-0.6-0.3c-0.3-0.1-0.5-0.1-0.8-0.2v-0.1l-4.4-0.8c0.2-0.1 0.3-0.2 0.5-0.4s0.3-0.4 0.3-0.6l0.4-5.3 1.1 0.1-0.2 3.1c0 0.8 0.3 1.5 0.9 2 0.3 0.3 0.8 0.4 1.2 0.5v-0.2l-0.6-0.3c-0.2-0.1-0.4-0.2-0.5-0.4h1.6 1.1c0.2 0.3 0.5 0.6 0.7 0.9 0.3 0.4 0.8 0.7 1.3 0.9-0.4 0.3-0.8 0.4-1.2 0.6zm3.3-5.9c-0.9-0.3-1.6-1-1.8-1.9h0.5c0.2 0.6 0.7 1.1 1.3 1.3 0.8 0.3 1.6 0.2 2.2-0.2l0.3 0.2c-0.6 0.7-1.6 0.9-2.5 0.6zm7.1-2.7c-0.5 0.5-1.2 0.8-1.9 0.8l0.2-0.5c0.5-0.1 1-0.4 1.3-0.8 0.6-0.6 0.8-1.5 0.5-2.4l0.3-0.2c0.6 1 0.3 2.3-0.4 3.1zm-0.3-2h-0.2c-0.1 0-0.1-0.2-0.1-0.3l1.1-4.5c0.1 0 0.1-0.1 0.2-0.1s0.2 0.1 0.2 0.2l-1.2 4.7zm0.6-6l0.3-0.9 0.2 0.3-0.5 0.6zm0.6-1.1l0.2-4.1c0-0.1 0.1-0.2 0.3-0.2 0.1 0 0.1 0 0.2 0.1l-0.2 4.3c0 0.1-0.2 0.1-0.2 0.1-0.2-0.1-0.3-0.1-0.3-0.2zm1.6 1.4c-0.2 0.8-0.6 1.4-1.3 1.7l-0.2-0.4c0.5-0.5 0.8-1 0.9-1.7 0.1-0.5 0-1.1-0.2-1.6l0.2-0.2c0.5 0.5 0.8 1.3 0.6 2.2zm2-9.3c-0.2 2.4-1.1 4.7-2.5 6.7h-0.3l0.1-1.7c0.9-0.5 1.4-1.4 1.4-2.4 0.1-1.1-0.5-2.1-1.3-2.7v-1.5c0.9-0.6 1.4-1.6 1.4-2.6 0-1.1-0.6-2-1.5-2.6v-1l0.6-0.6 0.6 1c1.2 2.3 1.7 4.8 1.5 7.4zm2.6-13.4c-0.2 0-0.4-0.1-0.5-0.3-0.4-0.8-0.8-1.6-1.3-2.4-0.6-1.1-1.4-2.2-2.1-3.2l1.9-1c0.1 0 0.2-0.1 0.3-0.1s0.2 0 0.2 0.1c0.2 0.2 0.3 0.4 0.4 0.6 0.1 0.3 0.2 0.6 0.2 0.9 0 0.6 0.1 1.3 0.3 2 0.2 0.9 0.4 1.9 0.8 2.8 0.1 0.3 0 0.5-0.2 0.6z"/>
	</g>
</svg>
