<?xml version="1.0" encoding="UTF-8"?>
<svg width="19px" height="19px" viewBox="0 0 19 19" version="1.1" xmlns="http://www.w3.org/2000/svg" xmlns:xlink="http://www.w3.org/1999/xlink">
    <!-- Generator: Sketch 51.2 (57519) - http://www.bohemiancoding.com/sketch -->
    <title>Group</title>
    <desc>Created with Sketch.</desc>
    <defs></defs>
    <g id="testing-3" stroke="none" stroke-width="1" fill="none" fill-rule="evenodd">
        <g id="New-FRANK-visual-concept---Cocaine---Mobile-Copy-19" transform="translate(-257.000000, -203.000000)" fill="#323232" stroke="#323232">
            <g id="Group-4" transform="translate(30.000000, 191.000000)">
                <g id="Group" transform="translate(228.000000, 13.000000)">
                    <path d="M10.4339353,0.772619622 C13.6381749,0.772619622 16.2275218,3.3624406 16.2275218,6.56726679 C16.2275218,9.77209298 13.6381749,12.361914 10.4339353,12.361914 C7.22950263,12.361914 4.64034883,9.77209298 4.64034883,6.56726679 C4.64034883,3.3624406 7.22950263,0.772619622 10.4339353,0.772619622 M10.4339353,0 C6.81217128,0 3.86787063,2.94483969 3.86787063,6.56726679 C3.86787063,8.23902249 4.49628164,9.76494625 5.52754004,10.9254209 L0.11999953,16.3337583 C-0.0344961096,16.4807492 -0.0406759351,16.7252833 0.106481162,16.8798072 C0.253445139,17.0345243 0.497934489,17.0407052 0.652430128,16.8935212 C0.6560994,16.8902376 0.659768671,16.8865676 0.663244823,16.8830908 L6.07657892,11.4685725 C7.23703429,12.5015649 8.76113378,13.1345336 10.4339353,13.1345336 C14.0556993,13.1345336 17,10.1896939 17,6.56726679 C17,2.94483969 14.0556993,0 10.4339353,0" id="Fill-1" transform="translate(8.500000, 8.500000) scale(-1, 1) translate(-8.500000, -8.500000) "></path>
                </g>
            </g>
        </g>
    </g>
</svg>